<svg width="442" height="410" viewBox="0 0 442 410" fill="none" xmlns="http://www.w3.org/2000/svg">
<path d="M316.47 196.149L315 205L333 200.972L331.387 196.603L327.299 193C323.854 194.466 320.384 195.87 316.47 196.149Z" fill="#B10000"/>
<path d="M127.167 290.556C130.112 313.462 134.194 335.715 150.518 350.939C163.89 363.623 178.939 375.355 196.539 385.637C214.767 395.237 233.725 402.356 255.549 399.743C280.179 397.057 291.514 384.584 299.984 370.001C306.369 349.881 313.638 329.509 317.214 310.187C318.736 297.904 320.567 288.066 321.294 269.465L314.04 219.281C318.509 200.805 318.225 181.654 316.761 162.336C340.988 164.749 362.92 165.11 370.264 152.422C372.781 127.354 347.762 123.872 330.59 117.558L305.426 114.178C296.348 84.4305 282.109 58.7222 239.227 55.4314L205.901 53.4041C202.683 49.0421 203.701 42.7371 185.662 45.1736C179.479 47.3181 176.282 51.1713 175.082 56.1665C154.053 62.2743 132.849 67.9148 114.457 81.012C99.1951 95.2653 79.7788 106.361 73.9973 127.82C66.0569 155.943 74.9177 192.471 84.2784 200.011L87.4521 211.051C78.5059 219.046 69.0857 232.138 73.7818 252.464C78.7975 269.475 87.8584 284.456 107.562 294.313C114.814 295.785 121.57 295.369 127.167 290.556Z" fill="#F81443"/>
<path d="M209.613 294.479C207.247 304.216 208.738 314.702 212.56 325.64L214.544 323.049C215.749 328.363 217.215 333.592 220.212 338.314L221.062 333.413L226.899 343.777L227.75 341.186C233.426 345.38 239.046 351.806 247.6 346.992C252.113 342.301 248.609 338.616 247.033 337.698L240.799 334.319C239.775 333.49 240.937 331.641 241.932 332.516C256.037 338.296 267.63 335.564 278.432 330.15C280.19 329.449 281.405 331.394 278.886 332.966L274.238 335.67C270.436 338.197 276.631 349.114 281.266 345.246C285.305 343.016 288.791 336.627 291.869 327.178L292.889 328.981C293.944 325.7 293.91 322.502 294.023 319.292L295.383 320.757C299.754 310.998 299.391 301.331 296.063 291.721C290.82 303.869 286.24 317.037 276.793 322.702C270.835 324.771 268.366 327.997 254.462 327.434C242.875 325.042 231.343 322.482 222.269 312.45C216.581 307.085 213.277 300.705 209.613 294.479Z" fill="#F1FAEE"/>
<path d="M214.111 294.212C215.423 297.571 216.752 300.926 219.836 303.844C223.782 306.229 235.878 311.04 249.478 311.167C255.235 311.294 260.993 311.814 266.75 311.262C277.649 309.302 287.803 306.42 288.585 295.292C289.286 294.928 268.804 297.663 264.426 298.194C262.688 298.405 247.697 298.491 244.929 298.082C232.058 297.542 222.31 296.1 214.111 294.212Z" fill="#F1FAEE"/>
<path d="M231.18 314.832C234.099 318.887 240.67 321.386 248.807 323.219C256.232 325.621 263.126 324.619 269.807 322.263C264.181 316.579 258.358 313.37 252.093 315.731C243.399 312.786 236.347 312.361 231.18 314.832Z" fill="#F1FAEE"/>
<path d="M217.108 291.559L243.851 295.097L262.767 295.496L285.13 292.867L292.825 290.557L290.66 289.521C284.619 291.126 278.427 292.032 272.065 292.15L265.172 287.769C261.801 291.043 258.148 292.56 254.351 293.185C242.727 293.333 231.858 292.184 221.408 290.318L217.108 291.559Z" fill="#F1FAEE"/>
<path d="M299.066 129.372C282.412 132.009 265.825 135.157 250.012 144.268L217.831 157.931C205.647 160.922 193.628 164.767 180.726 164.047L149.947 159.347L146.661 161.418C151.782 170.843 152.955 175.88 152.351 178.943L141.777 201.276C138.394 210.54 139.189 220.378 140.094 230.231C142.654 247.845 148.366 263.05 159.251 274.299C166.253 281.222 176.498 287.266 188.186 292.918C190.366 303.799 194.619 307.359 198.652 311.688C196.301 294.801 198.736 287.429 202.98 283.649C206.242 280.029 213.457 278.057 223.339 277.196L244.741 273.372C240.031 270.658 235.052 268.088 236.805 261.944C238.079 258.635 239.019 255.196 244.019 253.34C246.183 252.697 247.644 253.677 246.103 255.651C241.56 257.307 240.528 260.238 239.851 263.298C238.952 269.296 245.133 269.371 251.233 269.512C257.578 269.579 263.793 272.737 269.989 276.361C282.614 275.23 284.61 269.012 285.904 262.458C282.084 243.807 266.027 231.078 262.392 206.619C262.237 200.808 262.088 195 264.958 189.811C266.085 188.675 267.771 188.622 266.962 190.767C264.669 197.364 267.703 199.808 270.729 202.259C274.528 197.683 278.428 193.243 285.157 192.619C291.538 192.366 297.1 195.296 301.668 202.1C307.206 212.416 306.007 223.949 303.313 235.752L307.08 237.026C308.615 238.006 308.088 240.419 305.558 240.053C297.707 237.05 289.602 237.409 281.432 238.619L283.916 247.121L289.207 258.073C290.297 265.856 288.03 270.981 283.916 274.642C294.412 277.591 308.424 274.274 305.157 301.764C310.531 293.659 315.354 284.88 315.256 270.081L313.333 250.127L309.085 220.855L312.611 191.422C307.606 185.352 299.509 183.481 291.37 181.667C284.797 182.122 276.452 185.778 272.455 181.588C270.269 177.472 270.631 172.465 277.744 170.434C289.41 168.874 301.074 167.472 312.531 180.234C310.683 162.469 309.009 144.65 299.066 129.372ZM219.409 168.408C225.541 168.377 231.205 169.053 235.961 171.111C241.643 174.058 238.807 182.977 232.221 182.941L222.926 181.25C210.481 181.186 198.298 181.591 189.713 188.46L177.016 191.051C179.264 186.74 181.47 182.419 185.631 178.546C191.226 174.32 197.037 170.219 207.963 169.083C211.882 168.7 215.73 168.427 219.409 168.408ZM211.572 192.853C214.602 192.812 216.861 193.458 219.274 193.966C224.5 196.466 229.091 200.07 231.912 206.753C234.295 215.175 236.365 223.651 233.556 232.957L232.139 239.266L235.143 240.617L231.912 243.041C215.182 237.319 201.897 240.529 188.554 243.589L186.287 241.279L191.048 239.307C187.722 231.684 188.144 223.101 189.461 214.287C191.569 206.218 194.035 198.382 202.667 194.587C206.393 193.335 209.215 192.886 211.572 192.853ZM221.141 264.377C218.221 267.659 217.845 271.545 211.844 274.095L200.942 279.354C195.532 283.313 194.855 288.317 193.328 293.134C193.111 289.788 191.628 287.306 195.011 281.505C198.393 277.178 202.606 275.738 206.714 273.937C212.023 271.026 216.466 267.638 221.141 264.377ZM293.703 266.086L298.379 270.255C301.205 271.748 303.258 273.472 305.35 275.184C307.987 277.298 307.65 280.499 307.504 283.632C306.114 279.341 303.074 275.719 297.982 272.93C294.999 270.862 294.61 268.439 293.703 266.086Z" fill="#F1FAEE"/>
<path d="M194.334 238.748L205.729 237.108C203.461 233.278 203.178 229.313 203.065 225.335C207.043 223.096 211.226 220.912 216.327 218.97C211.983 216.605 207.703 214.211 204.028 211.55C205.064 205.583 208.057 200.408 213.55 196.244C207.125 194.89 202.13 196.747 197.794 202.271C193.111 210.253 190.527 221.144 191.613 228.707L194.334 238.748Z" fill="#F1FAEE"/>
<path d="M85.1635 193.508L149.094 151.23C145.864 118.118 137.548 82.4544 164.129 64.3009C135.64 74.7218 108.111 86.4323 89.7377 110.455C67.5383 135.619 76.026 164.524 85.1635 193.508Z" fill="#F1FAEE"/>
<path d="M152.219 149.929C150.169 120.393 138.98 88.2612 167.929 67.5279C178.613 57.8665 196.019 57.2106 216.502 60.6767C244.446 65.464 247.877 92.5372 256.899 114.527C217.619 122.197 183.388 134.622 152.219 149.929Z" fill="#F1FAEE"/>
<path d="M180.521 54.9826L200.245 52.842C198.06 50.0253 193.93 49.5959 189.193 49.9129C184.015 50.9209 181.961 52.8602 180.521 54.9826Z" fill="#F1FAEE"/>
<path d="M223.068 59.0212C254.464 71.2637 250.282 95.37 261.268 114.418L299.355 113.517C293.631 94.1407 286.578 75.7348 265.689 67.4405C252.587 62.2164 238.436 59.289 223.068 59.0212Z" fill="#F1FAEE"/>
<path d="M155.988 155.069L187.728 159.576C207.493 157.105 225.067 150.28 242.138 142.451C260.802 133.423 280.71 126.557 302.995 123.821C330.314 122.508 359.169 129.069 364.111 151.943C364.69 146.8 369.466 143.568 350.508 129.525C333.851 121.314 316.92 121.341 300.066 119.048C279.15 118.22 259.221 118.698 241.915 122.653C218.908 127.881 196.48 134.413 175.728 144.719L155.988 155.069Z" fill="#F1FAEE"/>
<path d="M96.3633 213.752C91.143 213.76 86.1227 217.119 81.5357 227.338C75.1365 243.8 80.2868 259.128 91.1544 273.896C99.1461 284.204 113.437 294.256 122.736 286.404C126.733 283.393 129.149 279.185 128.666 272.782C128.236 250.83 126.313 230.568 113.438 220.886C107.705 217.533 101.92 213.744 96.3633 213.752ZM98.3062 231.636C102.475 231.885 105.723 234.666 108.725 238.128C112.53 242.666 114.574 247.894 116.661 253.104C117.732 255.232 114.309 255.944 113.175 253.981L111.612 249.36C106.917 251.594 105.953 255.851 105.921 260.612L109.768 266.944C111.187 269.331 108.232 270.501 107.284 269.353C103.361 265.259 101.74 260.99 102.876 256.27C103.297 252.164 106.089 249.044 109.809 246.312C107.524 242.197 104.58 238.409 100.27 235.3C96.3965 233.525 95.4918 236.306 93.9374 238.089C92.5962 239.13 90.5467 237.444 91.3322 236.058C93.8858 231.812 96.0554 232.219 98.3062 231.636Z" fill="#F1FAEE"/>
<path d="M327.412 217L329.999 242.419L330.861 272.779C330.313 282.241 329.949 291.671 328.188 301.338C326.898 311.6 323.92 321.078 321.073 330.617C315.717 342.531 309.95 352.949 302.659 357.825L299 369C310.234 361.852 320.882 353.053 327.782 333.687C331.816 319.914 334.963 305.592 336.929 290.54C339.179 269.103 337.513 247.665 335.343 226.227L331.663 217.322L327.412 217Z" fill="#FF7575"/>
<path d="M305.034 184.852C302.304 184.883 299.57 185.082 296.831 185.492C279.082 186.865 271.713 192.636 259.198 195.745L251.488 194.843C245.095 191.972 243.019 188.741 222.243 187.07C205.946 187.157 189.706 187.747 173.831 191.609L145.493 200.284L106.438 212.785L113.813 217.086L163.498 204.905C172.22 203.8 171.098 207.808 171.546 211.439C172.629 225.166 176.385 238.509 183.788 246.588C183.303 246.795 195.1 250.824 198.898 250.956C200.947 251.027 225.32 251.28 225.423 249.547C233.957 248.102 240.428 243.97 244.58 236.818L253.367 208.805C254.222 205.315 261.689 203.093 263.91 207.679C267.354 221.261 276.474 232.869 283.86 245.08C287.802 247.491 292.748 247.511 297.738 247.423C308.262 247.535 320.995 249.771 329.477 238.185C334.285 228.052 337.684 217.178 337.071 204.193L340.812 199.35C340.792 196.367 341.159 193.336 340.358 190.45C328.606 187.742 316.862 184.717 305.034 184.852ZM301.303 188.741C307.435 188.753 314.816 189.6 323.879 191.792C330.838 194.443 332.145 201.386 331.927 210.831C332.276 222.459 328.263 229.233 325.013 236.855C318.213 243.651 311.005 242.333 303.928 243.614C295.091 243.465 286.279 243.295 282.164 239.333C276.317 231.373 270.938 222.182 270.149 200.918C271.102 197.006 272.793 196.704 274.37 195.334C280.372 192.721 287.814 188.712 301.303 188.741ZM214.473 191.235C225.425 191.318 234.953 193.347 243.489 196.732C254.399 199.871 244.643 217.623 243.168 225.765C241.039 237.018 234.289 242.011 230.504 243.61C217.549 247.086 205.258 248.362 194.113 245.84C184.26 244.13 181.836 236.515 179.846 228.553C178.385 215.597 172.697 200.107 184.896 195.335C193.858 191.519 204.287 191.707 214.473 191.235Z" fill="#B10000"/>
<path d="M158.833 220.12C160.642 245.253 160.268 269.914 158.606 294.298L156.792 316.743L152.485 341.933C149.867 349.783 148.117 358.085 142.509 364.378C141.146 362.447 140.53 360.433 140.526 358.351C140.091 352.224 141.327 346.702 142.509 341.159L137.635 333.611C134.95 342.472 133.091 351.641 134.008 361.843C134.949 366.835 136.662 371.139 141.943 372.264C149.954 370.237 151.61 362.093 155.149 355.76C159.753 341.54 162.881 326.626 164.614 311.054L166.767 280.752L166.427 238.186L165.577 220.36L158.833 220.12Z" fill="#FF7575"/>
<path d="M162.453 191.135C162.027 191.143 161.573 191.272 161.085 191.48C157.489 194.22 155.732 199.233 159.499 211.082C157.389 214.527 157.645 217.651 159.385 220.572C160.617 221.986 163.639 222.047 165.733 219.613C166.917 217.667 166.331 213.501 164.882 210.657C166.027 205.446 168.771 201.264 164.656 192.662C163.982 191.535 163.267 191.119 162.453 191.135ZM162.201 194.091C163.852 194.124 164.193 197.292 164.357 200.138C164.595 203.675 163.848 205.847 162.259 208.748C159.993 205.603 160.271 202.202 160.077 198.251C160.033 196.491 159.985 194.757 161.947 194.111C162.035 194.097 162.12 194.091 162.201 194.091Z" fill="#6F0101"/>
<path d="M324.305 192.442C323.629 197.962 324.983 202.77 326.855 207.397C323.393 210.941 325.392 214.184 327.224 217.437L331.531 217.634C332.546 212.396 332.127 206.704 331.502 200.947C330.974 201.914 330.86 202.881 329.858 203.848C329.4 204.269 328.276 204.028 328.101 203.426C327.155 200.131 326.639 196.898 326.429 193.512L324.305 192.442Z" fill="#6F0101"/>
<path d="M279.056 235.848L282.823 234.971C280.33 230.803 279.442 226.634 278.735 222.465C282.818 219.835 286.938 217.422 291.319 216.57C286.633 214.496 282.641 212.108 279.617 209.284C281.457 204.453 283.848 199.935 287.793 196.299C284.242 195.093 280.593 196.655 276.892 199.645C274.628 202.732 272.058 205.514 270.64 209.443C271.104 219.112 274.978 227.559 279.056 235.848Z" fill="#F1FAEE"/>
</svg>
