<svg width="442" height="573" viewBox="0 0 442 573" fill="none" xmlns="http://www.w3.org/2000/svg">
<path d="M316.47 196.149L315 205L333 200.972L331.387 196.603L327.299 193C323.854 194.466 320.384 195.87 316.47 196.149Z" fill="#474747"/>
<path d="M127.167 290.556C130.112 313.462 134.194 335.715 150.518 350.939C163.89 363.623 178.939 375.355 196.539 385.637C214.767 395.237 233.725 402.356 255.549 399.743C280.179 397.057 291.514 384.584 299.984 370.001C306.369 349.881 313.638 329.509 317.214 310.187C318.736 297.904 320.567 288.066 321.294 269.465L314.04 219.281C318.509 200.805 318.225 181.654 316.761 162.336C340.988 164.749 362.92 165.11 370.264 152.422C372.781 127.354 347.762 123.872 330.59 117.558L305.426 114.178C296.348 84.4305 282.109 58.7222 239.227 55.4314L205.901 53.4041C202.683 49.0421 203.701 42.7371 185.662 45.1736C179.479 47.3181 176.282 51.1713 175.082 56.1665C154.053 62.2743 132.849 67.9148 114.457 81.012C99.1951 95.2653 79.7788 106.361 73.9973 127.82C66.0569 155.943 74.9177 192.471 84.2784 200.011L87.4521 211.051C78.5059 219.046 69.0857 232.138 73.7818 252.464C78.7975 269.475 87.8584 284.456 107.562 294.313C114.814 295.785 121.57 295.369 127.167 290.556Z" fill="#444444"/>
<path d="M209.613 294.479C207.247 304.216 208.738 314.702 212.56 325.64L214.544 323.049C215.749 328.363 217.215 333.592 220.212 338.314L221.062 333.413L226.899 343.777L227.75 341.186C233.426 345.38 239.046 351.806 247.6 346.992C252.113 342.301 248.609 338.616 247.033 337.698L240.799 334.319C239.775 333.49 240.937 331.641 241.932 332.516C256.037 338.296 267.63 335.564 278.432 330.15C280.19 329.449 281.405 331.394 278.886 332.966L274.238 335.67C270.436 338.197 276.631 349.114 281.266 345.246C285.305 343.016 288.791 336.627 291.869 327.178L292.889 328.981C293.944 325.7 293.91 322.502 294.023 319.292L295.383 320.757C299.754 310.998 299.391 301.331 296.063 291.721C290.82 303.869 286.24 317.037 276.793 322.702C270.835 324.771 268.366 327.997 254.462 327.434C242.875 325.042 231.343 322.482 222.269 312.45C216.581 307.085 213.277 300.705 209.613 294.479Z" fill="#F8F3E6"/>
<path d="M214.111 294.212C215.423 297.571 216.752 300.926 219.836 303.844C223.782 306.229 235.878 311.04 249.478 311.167C255.235 311.294 260.993 311.814 266.75 311.262C277.649 309.302 287.803 306.42 288.585 295.292C289.286 294.928 268.804 297.663 264.426 298.194C262.688 298.405 247.697 298.491 244.929 298.082C232.058 297.542 222.31 296.1 214.111 294.212Z" fill="#F8F3E6"/>
<path d="M231.18 314.832C234.099 318.887 240.67 321.386 248.807 323.219C256.232 325.621 263.126 324.619 269.807 322.263C264.181 316.579 258.358 313.37 252.093 315.731C243.399 312.786 236.347 312.361 231.18 314.832Z" fill="#F8F3E6"/>
<path d="M217.108 291.559L243.851 295.097L262.767 295.496L285.13 292.867L292.825 290.557L290.66 289.521C284.619 291.126 278.427 292.032 272.065 292.15L265.172 287.769C261.801 291.043 258.148 292.56 254.351 293.185C242.727 293.333 231.858 292.184 221.408 290.318L217.108 291.559Z" fill="#F8F3E6"/>
<path d="M299.066 129.372C282.412 132.009 265.825 135.157 250.012 144.268L217.831 157.931C205.647 160.922 193.628 164.767 180.726 164.047L149.947 159.347L146.661 161.418C151.782 170.843 152.955 175.88 152.351 178.943L141.777 201.276C138.394 210.54 139.189 220.378 140.094 230.231C142.654 247.845 148.366 263.05 159.251 274.299C166.253 281.222 176.498 287.266 188.186 292.918C190.366 303.799 194.619 307.359 198.652 311.688C196.301 294.801 198.736 287.429 202.98 283.649C206.242 280.029 213.457 278.057 223.339 277.196L244.741 273.372C240.031 270.658 235.052 268.088 236.805 261.944C238.079 258.635 239.019 255.196 244.019 253.34C246.183 252.697 247.644 253.677 246.103 255.651C241.56 257.307 240.528 260.238 239.851 263.298C238.952 269.296 245.133 269.371 251.233 269.512C257.578 269.579 263.793 272.737 269.989 276.361C282.614 275.23 284.61 269.012 285.904 262.458C282.084 243.807 266.027 231.078 262.392 206.619C262.237 200.808 262.088 195 264.958 189.811C266.085 188.675 267.771 188.622 266.962 190.767C264.669 197.364 267.703 199.808 270.729 202.259C274.528 197.683 278.428 193.243 285.157 192.619C291.538 192.366 297.1 195.296 301.668 202.1C307.206 212.416 306.007 223.949 303.313 235.752L307.08 237.026C308.615 238.006 308.088 240.419 305.558 240.053C297.707 237.05 289.602 237.409 281.432 238.619L283.916 247.121L289.207 258.073C290.297 265.856 288.03 270.981 283.916 274.642C294.412 277.591 308.424 274.274 305.157 301.764C310.531 293.659 315.354 284.88 315.256 270.081L313.333 250.127L309.085 220.855L312.611 191.422C307.606 185.352 299.509 183.481 291.37 181.667C284.797 182.122 276.452 185.778 272.455 181.588C270.269 177.472 270.631 172.465 277.744 170.434C289.41 168.874 301.074 167.472 312.531 180.234C310.683 162.469 309.009 144.65 299.066 129.372ZM219.409 168.408C225.541 168.377 231.205 169.053 235.961 171.111C241.643 174.058 238.807 182.977 232.221 182.941L222.926 181.25C210.481 181.186 198.298 181.591 189.713 188.46L177.016 191.051C179.264 186.74 181.47 182.419 185.631 178.546C191.226 174.32 197.037 170.219 207.963 169.083C211.882 168.7 215.73 168.427 219.409 168.408ZM211.572 192.853C214.602 192.812 216.861 193.458 219.274 193.966C224.5 196.466 229.091 200.07 231.912 206.753C234.295 215.175 236.365 223.651 233.556 232.957L232.139 239.266L235.143 240.617L231.912 243.041C215.182 237.319 201.897 240.529 188.554 243.589L186.287 241.279L191.048 239.307C187.722 231.684 188.144 223.101 189.461 214.287C191.569 206.218 194.035 198.382 202.667 194.587C206.393 193.335 209.215 192.886 211.572 192.853ZM221.141 264.377C218.221 267.66 217.845 271.545 211.844 274.095L200.942 279.354C195.532 283.313 194.855 288.317 193.328 293.134C193.111 289.788 191.628 287.306 195.011 281.505C198.393 277.178 202.606 275.738 206.714 273.937C212.023 271.026 216.466 267.638 221.141 264.377ZM293.703 266.086L298.379 270.255C301.205 271.748 303.258 273.472 305.35 275.184C307.987 277.298 307.65 280.499 307.504 283.632C306.114 279.341 303.074 275.719 297.982 272.93C294.999 270.862 294.61 268.439 293.703 266.086Z" fill="#F8F3E6"/>
<path d="M194.334 238.748L205.729 237.108C203.461 233.278 203.178 229.313 203.065 225.335C207.043 223.096 211.226 220.912 216.327 218.97C211.983 216.605 207.703 214.211 204.028 211.55C205.064 205.583 208.057 200.408 213.55 196.244C207.125 194.89 202.13 196.747 197.794 202.271C193.111 210.253 190.527 221.144 191.613 228.707L194.334 238.748Z" fill="#F8F3E6"/>
<path d="M85.1635 193.508L149.094 151.23C145.864 118.118 137.548 82.4544 164.129 64.3009C135.64 74.7218 108.111 86.4323 89.7377 110.455C67.5382 135.619 76.026 164.524 85.1635 193.508Z" fill="#F8F3E6"/>
<path d="M152.219 149.929C150.169 120.393 138.98 88.2612 167.929 67.5279C178.613 57.8665 196.019 57.2106 216.502 60.6767C244.446 65.464 247.877 92.5372 256.899 114.527C217.619 122.197 183.388 134.622 152.219 149.929Z" fill="#F8F3E6"/>
<path d="M180.521 54.9826L200.245 52.842C198.06 50.0253 193.93 49.5959 189.193 49.9129C184.015 50.9209 181.961 52.8602 180.521 54.9826Z" fill="#F8F3E6"/>
<path d="M223.068 59.0212C254.464 71.2637 250.282 95.37 261.268 114.418L299.355 113.517C293.631 94.1407 286.578 75.7348 265.689 67.4405C252.587 62.2164 238.436 59.289 223.068 59.0212Z" fill="#F8F3E6"/>
<path d="M155.988 155.069L187.728 159.576C207.493 157.105 225.067 150.28 242.138 142.451C260.802 133.423 280.71 126.557 302.995 123.821C330.314 122.508 359.169 129.069 364.111 151.943C364.69 146.8 369.466 143.568 350.508 129.525C333.851 121.314 316.92 121.341 300.066 119.048C279.15 118.22 259.221 118.698 241.915 122.653C218.908 127.881 196.48 134.413 175.728 144.719L155.988 155.069Z" fill="#F8F3E6"/>
<path d="M96.3633 213.752C91.143 213.76 86.1227 217.119 81.5357 227.338C75.1365 243.8 80.2868 259.128 91.1544 273.896C99.1461 284.204 113.437 294.256 122.736 286.404C126.733 283.393 129.149 279.185 128.666 272.782C128.236 250.83 126.313 230.568 113.438 220.886C107.705 217.533 101.92 213.744 96.3633 213.752ZM98.3062 231.636C102.475 231.885 105.723 234.666 108.725 238.128C112.53 242.666 114.574 247.894 116.661 253.104C117.732 255.232 114.309 255.944 113.175 253.981L111.612 249.36C106.917 251.594 105.953 255.851 105.921 260.612L109.768 266.944C111.187 269.331 108.232 270.501 107.284 269.353C103.361 265.259 101.74 260.99 102.876 256.27C103.297 252.164 106.089 249.044 109.809 246.312C107.524 242.197 104.58 238.409 100.27 235.3C96.3965 233.525 95.4918 236.306 93.9374 238.089C92.5962 239.13 90.5467 237.444 91.3322 236.058C93.8858 231.812 96.0554 232.219 98.3062 231.636Z" fill="#F8F3E6"/>
<path d="M327.441 216.682L329.857 242.104L330.662 272.468C330.151 281.932 329.811 291.364 328.166 301.032C326.961 311.295 324.18 320.775 321.521 330.315C316.519 342.23 311.133 352.65 304.323 357.526L300.906 368.703C311.398 361.554 321.343 352.753 327.787 333.385C331.555 319.611 334.493 305.287 336.329 290.232C338.431 268.792 336.874 247.351 334.848 225.911L331.411 217.004L327.441 216.682Z" fill="#C4C4C4"/>
<path d="M305.034 184.852C302.304 184.883 299.57 185.082 296.831 185.492C279.082 186.865 271.713 192.636 259.198 195.745L251.488 194.843C245.095 191.972 243.019 188.741 222.243 187.07C205.946 187.157 189.706 187.747 173.831 191.609L145.493 200.284L106.438 212.785L113.813 217.086L163.498 204.905C172.22 203.8 171.098 207.808 171.546 211.439C172.629 225.166 176.385 238.509 183.788 246.588C183.303 246.795 195.1 250.824 198.898 250.956C200.947 251.027 225.32 251.28 225.423 249.547C233.957 248.102 240.428 243.97 244.58 236.818L253.367 208.805C254.222 205.315 261.689 203.093 263.91 207.679C267.354 221.261 276.474 232.869 283.86 245.08C287.802 247.491 292.748 247.511 297.738 247.423C308.262 247.535 320.995 249.771 329.477 238.185C334.285 228.052 337.684 217.178 337.071 204.193L340.812 199.35C340.792 196.367 341.159 193.336 340.358 190.45C328.606 187.742 316.862 184.717 305.034 184.852ZM301.303 188.741C307.435 188.753 314.816 189.6 323.879 191.792C330.838 194.443 332.145 201.386 331.927 210.831C332.276 222.459 328.263 229.233 325.013 236.855C318.213 243.651 311.005 242.333 303.928 243.614C295.091 243.465 286.279 243.295 282.164 239.333C276.317 231.373 270.938 222.182 270.149 200.918C271.102 197.006 272.793 196.704 274.37 195.334C280.372 192.721 287.814 188.712 301.303 188.741ZM214.473 191.235C225.425 191.318 234.953 193.347 243.489 196.732C254.399 199.871 244.643 217.623 243.168 225.765C241.039 237.018 234.289 242.011 230.504 243.61C217.549 247.086 205.258 248.362 194.113 245.84C184.26 244.13 181.836 236.515 179.846 228.553C178.385 215.597 172.697 200.107 184.896 195.335C193.858 191.519 204.287 191.707 214.473 191.235Z" fill="#474747"/>
<path d="M158.833 220.12C160.642 245.253 160.268 269.914 158.606 294.298L156.792 316.743L152.485 341.933C149.867 349.783 148.117 358.085 142.509 364.378C141.146 362.447 140.53 360.433 140.526 358.351C140.091 352.224 141.327 346.702 142.509 341.159L137.635 333.611C134.95 342.472 133.091 351.641 134.008 361.843C134.949 366.835 136.662 371.139 141.943 372.264C149.954 370.237 151.61 362.093 155.149 355.76C159.753 341.54 162.881 326.626 164.614 311.054L166.767 280.752L166.427 238.186L165.577 220.36L158.833 220.12Z" fill="#C4C4C4"/>
<path d="M162.453 191.135C162.027 191.143 161.573 191.272 161.085 191.48C157.489 194.22 155.732 199.233 159.499 211.082C157.389 214.527 157.645 217.651 159.385 220.572C160.617 221.986 163.639 222.047 165.733 219.613C166.917 217.667 166.331 213.501 164.882 210.657C166.027 205.446 168.771 201.264 164.656 192.662C163.982 191.535 163.267 191.119 162.453 191.135ZM162.201 194.091C163.852 194.124 164.193 197.292 164.357 200.138C164.595 203.675 163.848 205.847 162.259 208.748C159.993 205.603 160.271 202.202 160.077 198.251C160.033 196.491 159.985 194.757 161.947 194.111C162.035 194.097 162.12 194.091 162.201 194.091Z" fill="#686868"/>
<path d="M324.305 192.442C323.629 197.962 324.983 202.77 326.855 207.397C323.393 210.941 325.392 214.184 327.224 217.437L331.531 217.634C332.546 212.396 332.127 206.704 331.502 200.947C330.974 201.914 330.86 202.881 329.858 203.848C329.4 204.269 328.276 204.028 328.101 203.426C327.155 200.131 326.639 196.898 326.429 193.512L324.305 192.442Z" fill="#686868"/>
<path d="M279.056 235.848L282.823 234.971C280.33 230.803 279.442 226.634 278.735 222.465C282.818 219.835 286.938 217.422 291.319 216.57C286.633 214.496 282.641 212.108 279.617 209.284C281.457 204.453 283.848 199.935 287.793 196.299C284.242 195.093 280.593 196.655 276.892 199.645C274.628 202.732 272.058 205.514 270.64 209.443C271.104 219.112 274.978 227.559 279.056 235.848Z" fill="#F8F3E6"/>
<path d="M22.893 537.168C23.231 537.168 23.504 537.207 23.712 537.285C23.946 537.363 24.128 537.519 24.258 537.753C24.388 537.961 24.453 538.312 24.453 538.806C24.453 539.274 24.375 539.625 24.219 539.859C24.089 540.093 23.907 540.249 23.673 540.327C23.439 540.379 23.153 540.405 22.815 540.405H14.742V562.674C14.742 563.012 14.69 563.311 14.586 563.571C14.508 563.831 14.339 564.026 14.079 564.156C13.845 564.312 13.481 564.39 12.987 564.39C12.467 564.39 12.077 564.312 11.817 564.156C11.583 564.026 11.427 563.831 11.349 563.571C11.297 563.285 11.271 562.973 11.271 562.635V540.405H3.081C2.743 540.405 2.457 540.379 2.223 540.327C1.989 540.249 1.807 540.093 1.677 539.859C1.547 539.625 1.482 539.274 1.482 538.806C1.482 538.312 1.534 537.961 1.638 537.753C1.768 537.519 1.95 537.363 2.184 537.285C2.444 537.207 2.73 537.168 3.042 537.168H22.893ZM46.3655 561.894C46.5735 562.284 46.6775 562.622 46.6775 562.908C46.7035 563.168 46.6255 563.415 46.4435 563.649C46.2615 563.857 45.9755 564.052 45.5855 564.234C44.9615 564.52 44.4675 564.585 44.1035 564.429C43.7655 564.273 43.4535 563.896 43.1675 563.298L33.4175 542.55L23.7455 563.259C23.4595 563.857 23.1345 564.234 22.7705 564.39C22.4325 564.546 21.9385 564.481 21.2885 564.195C20.8985 564.039 20.6125 563.844 20.4305 563.61C20.2745 563.376 20.2095 563.09 20.2355 562.752C20.2875 562.414 20.4175 562.024 20.6255 561.582L31.8185 538.221C31.9745 537.909 32.1955 537.662 32.4815 537.48C32.7935 537.272 33.1185 537.168 33.4565 537.168C33.6905 537.168 33.9115 537.207 34.1195 537.285C34.3275 537.363 34.5095 537.48 34.6655 537.636C34.8215 537.792 34.9515 538 35.0555 538.26L46.3655 561.894ZM26.0855 556.629L27.4115 553.626H39.5015L40.7885 556.629H26.0855ZM51.5565 564.39C51.0365 564.39 50.6465 564.312 50.3865 564.156C50.1265 564.026 49.9445 563.831 49.8405 563.571C49.7625 563.311 49.7235 562.999 49.7235 562.635V538.962C49.7235 538.572 49.7625 538.247 49.8405 537.987C49.9185 537.727 50.0745 537.532 50.3085 537.402C50.5685 537.246 50.9585 537.168 51.4785 537.168C51.9985 537.168 52.3755 537.246 52.6095 537.402C52.8695 537.532 53.0385 537.727 53.1165 537.987C53.1945 538.247 53.2335 538.559 53.2335 538.923V561.114H66.2985C66.6365 561.114 66.9225 561.153 67.1565 561.231C67.3905 561.309 67.5725 561.465 67.7025 561.699C67.8585 561.933 67.9365 562.284 67.9365 562.752C67.9365 563.194 67.8715 563.545 67.7415 563.805C67.6115 564.039 67.4295 564.195 67.1955 564.273C66.9615 564.351 66.6755 564.39 66.3375 564.39H51.5565ZM73.3035 564.39C72.7835 564.39 72.3935 564.312 72.1335 564.156C71.8735 564.026 71.6915 563.831 71.5875 563.571C71.5095 563.311 71.4705 562.999 71.4705 562.635V538.962C71.4705 538.572 71.5095 538.247 71.5875 537.987C71.6655 537.727 71.8215 537.532 72.0555 537.402C72.3155 537.246 72.7055 537.168 73.2255 537.168C73.7455 537.168 74.1225 537.246 74.3565 537.402C74.6165 537.532 74.7855 537.727 74.8635 537.987C74.9415 538.247 74.9805 538.559 74.9805 538.923V561.114H88.0455C88.3835 561.114 88.6695 561.153 88.9035 561.231C89.1375 561.309 89.3195 561.465 89.4495 561.699C89.6055 561.933 89.6835 562.284 89.6835 562.752C89.6835 563.194 89.6185 563.545 89.4885 563.805C89.3585 564.039 89.1765 564.195 88.9425 564.273C88.7085 564.351 88.4225 564.39 88.0845 564.39H73.3035ZM95.4016 564.39C94.8816 564.39 94.4916 564.312 94.2316 564.156C93.9976 564.026 93.8416 563.831 93.7636 563.571C93.6856 563.285 93.6466 562.96 93.6466 562.596V538.923C93.6466 538.247 93.7766 537.792 94.0366 537.558C94.3226 537.298 94.8166 537.168 95.5186 537.168H111.197C111.561 537.168 111.873 537.207 112.133 537.285C112.393 537.363 112.588 537.532 112.718 537.792C112.848 538.052 112.913 538.442 112.913 538.962C112.913 539.482 112.835 539.872 112.679 540.132C112.549 540.366 112.354 540.522 112.094 540.6C111.834 540.678 111.522 540.717 111.158 540.717H97.1566V548.79H106.907C107.271 548.79 107.57 548.829 107.804 548.907C108.064 548.985 108.259 549.141 108.389 549.375C108.519 549.609 108.584 549.973 108.584 550.467C108.584 550.935 108.519 551.286 108.389 551.52C108.259 551.754 108.064 551.91 107.804 551.988C107.544 552.04 107.219 552.066 106.829 552.066H97.1566V560.88H111.197C111.561 560.88 111.873 560.919 112.133 560.997C112.393 561.075 112.588 561.244 112.718 561.504C112.848 561.738 112.913 562.115 112.913 562.635C112.913 563.155 112.835 563.545 112.679 563.805C112.549 564.039 112.354 564.195 112.094 564.273C111.834 564.351 111.522 564.39 111.158 564.39H95.4016ZM119.661 564.39C119.167 564.39 118.79 564.312 118.53 564.156C118.27 564.026 118.101 563.831 118.023 563.571C117.971 563.285 117.945 562.96 117.945 562.596V538.884C117.945 538.546 117.984 538.26 118.062 538.026C118.166 537.766 118.335 537.558 118.569 537.402C118.829 537.246 119.206 537.168 119.7 537.168H128.319C129.593 537.168 130.75 537.363 131.79 537.753C132.856 538.117 133.779 538.663 134.559 539.391C135.339 540.119 135.937 541.042 136.353 542.16C136.795 543.252 137.016 544.526 137.016 545.982C137.016 546.892 136.873 547.841 136.587 548.829C136.301 549.791 135.859 550.701 135.261 551.559C134.689 552.417 133.948 553.132 133.038 553.704C132.128 554.276 131.023 554.601 129.723 554.679H121.455V562.635C121.455 562.999 121.403 563.311 121.299 563.571C121.221 563.831 121.052 564.026 120.792 564.156C120.558 564.312 120.181 564.39 119.661 564.39ZM136.392 563.961C135.846 564.325 135.378 564.442 134.988 564.312C134.624 564.182 134.273 563.87 133.935 563.376L127.695 553.392L131.556 552.807L136.938 561.387C137.198 561.803 137.354 562.154 137.406 562.44C137.484 562.726 137.432 562.986 137.25 563.22C137.094 563.454 136.808 563.701 136.392 563.961ZM121.455 551.247H129.177C129.775 551.247 130.334 551.143 130.854 550.935C131.374 550.701 131.829 550.363 132.219 549.921C132.609 549.479 132.921 548.933 133.155 548.283C133.389 547.633 133.506 546.853 133.506 545.943C133.506 544.825 133.298 543.876 132.882 543.096C132.492 542.316 131.907 541.731 131.127 541.341C130.347 540.925 129.385 540.717 128.241 540.717H121.455V551.247ZM144.037 564.39C143.517 564.39 143.127 564.312 142.867 564.156C142.633 564.026 142.477 563.831 142.399 563.571C142.321 563.285 142.282 562.96 142.282 562.596V538.923C142.282 538.247 142.412 537.792 142.672 537.558C142.958 537.298 143.452 537.168 144.154 537.168H159.832C160.196 537.168 160.508 537.207 160.768 537.285C161.028 537.363 161.223 537.532 161.353 537.792C161.483 538.052 161.548 538.442 161.548 538.962C161.548 539.482 161.47 539.872 161.314 540.132C161.184 540.366 160.989 540.522 160.729 540.6C160.469 540.678 160.157 540.717 159.793 540.717H145.792V548.79H155.542C155.906 548.79 156.205 548.829 156.439 548.907C156.699 548.985 156.894 549.141 157.024 549.375C157.154 549.609 157.219 549.973 157.219 550.467C157.219 550.935 157.154 551.286 157.024 551.52C156.894 551.754 156.699 551.91 156.439 551.988C156.179 552.04 155.854 552.066 155.464 552.066H145.792V560.88H159.832C160.196 560.88 160.508 560.919 160.768 560.997C161.028 561.075 161.223 561.244 161.353 561.504C161.483 561.738 161.548 562.115 161.548 562.635C161.548 563.155 161.47 563.545 161.314 563.805C161.184 564.039 160.989 564.195 160.729 564.273C160.469 564.351 160.157 564.39 159.793 564.39H144.037ZM174.186 564.78C173.198 564.78 172.262 564.663 171.378 564.429C170.52 564.195 169.727 563.883 168.999 563.493C168.297 563.077 167.673 562.622 167.127 562.128C166.581 561.634 166.152 561.14 165.84 560.646C165.554 560.23 165.372 559.892 165.294 559.632C165.216 559.346 165.229 559.073 165.333 558.813C165.463 558.553 165.71 558.267 166.074 557.955C166.49 557.643 166.854 557.5 167.166 557.526C167.478 557.526 167.764 557.643 168.024 557.877C168.31 558.111 168.596 558.423 168.882 558.813C169.532 559.697 170.325 560.347 171.261 560.763C172.197 561.153 173.12 561.348 174.03 561.348C175.2 561.348 176.24 561.192 177.15 560.88C178.06 560.568 178.775 560.1 179.295 559.476C179.841 558.826 180.114 557.994 180.114 556.98C180.114 556.148 179.906 555.446 179.49 554.874C179.074 554.302 178.515 553.821 177.813 553.431C177.111 553.015 176.331 552.664 175.473 552.378C174.615 552.066 173.744 551.767 172.86 551.481C172.158 551.247 171.469 550.987 170.793 550.701C170.117 550.389 169.48 550.051 168.882 549.687C168.284 549.297 167.751 548.842 167.283 548.322C166.841 547.802 166.49 547.191 166.23 546.489C165.996 545.787 165.879 544.968 165.879 544.032C165.879 542.602 166.217 541.341 166.893 540.249C167.595 539.157 168.57 538.312 169.818 537.714C171.066 537.09 172.509 536.778 174.147 536.778C175.109 536.778 175.993 536.869 176.799 537.051C177.605 537.233 178.32 537.48 178.944 537.792C179.568 538.078 180.101 538.39 180.543 538.728C180.985 539.04 181.323 539.339 181.557 539.625C182.025 540.119 182.285 540.535 182.337 540.873C182.389 541.211 182.194 541.627 181.752 542.121C181.336 542.589 180.933 542.836 180.543 542.862C180.153 542.888 179.724 542.706 179.256 542.316C178.762 541.744 178.242 541.302 177.696 540.99C177.176 540.678 176.617 540.47 176.019 540.366C175.447 540.236 174.81 540.171 174.108 540.171C173.432 540.171 172.795 540.262 172.197 540.444C171.625 540.6 171.118 540.847 170.676 541.185C170.26 541.523 169.935 541.939 169.701 542.433C169.467 542.901 169.35 543.447 169.35 544.071C169.35 544.773 169.532 545.371 169.896 545.865C170.286 546.359 170.793 546.788 171.417 547.152C172.041 547.49 172.743 547.802 173.523 548.088C174.303 548.348 175.122 548.608 175.98 548.868C176.916 549.154 177.839 549.505 178.749 549.921C179.659 550.311 180.478 550.805 181.206 551.403C181.934 551.975 182.519 552.703 182.961 553.587C183.403 554.471 183.624 555.563 183.624 556.863C183.624 558.163 183.364 559.307 182.844 560.295C182.35 561.283 181.661 562.115 180.777 562.791C179.893 563.441 178.879 563.935 177.735 564.273C176.617 564.611 175.434 564.78 174.186 564.78ZM204.786 564.468C203.018 564.468 201.51 564.195 200.262 563.649C199.014 563.077 198.052 562.245 197.376 561.153C196.726 560.061 196.401 558.748 196.401 557.214C196.401 556.382 196.596 555.55 196.986 554.718C197.376 553.86 197.935 553.002 198.663 552.144C199.417 551.26 200.314 550.402 201.354 549.57C200.99 548.816 200.652 548.062 200.34 547.308C200.054 546.528 199.833 545.774 199.677 545.046C199.521 544.292 199.443 543.577 199.443 542.901C199.443 541.575 199.742 540.431 200.34 539.469C200.938 538.507 201.783 537.766 202.875 537.246C203.967 536.726 205.267 536.466 206.775 536.466C208.075 536.466 209.193 536.713 210.129 537.207C211.091 537.675 211.832 538.338 212.352 539.196C212.872 540.054 213.132 541.081 213.132 542.277C213.132 542.849 212.95 543.46 212.586 544.11C212.222 544.734 211.702 545.397 211.026 546.099C210.35 546.775 209.57 547.49 208.686 548.244C207.802 548.972 206.84 549.739 205.8 550.545C206.502 551.585 207.217 552.573 207.945 553.509C208.699 554.419 209.466 555.251 210.246 556.005C211.052 556.733 211.819 557.357 212.547 557.877C213.561 557.045 214.263 556.278 214.653 555.576C215.043 554.848 215.316 554.12 215.472 553.392C215.55 553.08 215.732 552.82 216.018 552.612C216.304 552.378 216.785 552.261 217.461 552.261C217.903 552.261 218.228 552.339 218.436 552.495C218.67 552.625 218.826 552.807 218.904 553.041C219.008 553.249 219.047 553.457 219.021 553.665C218.969 554.653 218.618 555.641 217.968 556.629C217.344 557.617 216.473 558.618 215.355 559.632C215.771 559.762 216.135 559.879 216.447 559.983C216.785 560.087 217.162 560.165 217.578 560.217C217.994 560.243 218.527 560.256 219.177 560.256C219.775 560.256 220.191 560.386 220.425 560.646C220.685 560.88 220.815 561.309 220.815 561.933C220.815 562.687 220.698 563.194 220.464 563.454C220.23 563.714 219.788 563.844 219.138 563.844C218.41 563.844 217.656 563.792 216.876 563.688C216.122 563.584 215.368 563.402 214.614 563.142C213.86 562.882 213.08 562.531 212.274 562.089C211.572 562.583 210.805 563.012 209.973 563.376C209.141 563.74 208.283 564.013 207.399 564.195C206.541 564.377 205.67 564.468 204.786 564.468ZM204.786 561.153C205.67 561.153 206.515 561.036 207.321 560.802C208.127 560.568 208.803 560.269 209.349 559.905C208.907 559.489 208.413 559.021 207.867 558.501C207.321 557.955 206.775 557.37 206.229 556.746C205.683 556.122 205.137 555.459 204.591 554.757C204.045 554.055 203.525 553.34 203.031 552.612C202.485 553.132 202.017 553.6 201.627 554.016C201.237 554.406 200.925 554.77 200.691 555.108C200.457 555.42 200.288 555.758 200.184 556.122C200.08 556.46 200.028 556.824 200.028 557.214C200.028 558.02 200.223 558.722 200.613 559.32C201.003 559.918 201.549 560.373 202.251 560.685C202.979 560.997 203.824 561.153 204.786 561.153ZM204.201 547.776C205.059 547.126 205.826 546.541 206.502 546.021C207.204 545.475 207.789 544.968 208.257 544.5C208.725 544.032 209.089 543.603 209.349 543.213C209.609 542.823 209.739 542.485 209.739 542.199C209.739 541.341 209.466 540.652 208.92 540.132C208.374 539.586 207.646 539.313 206.736 539.313C205.93 539.313 205.228 539.456 204.63 539.742C204.032 540.002 203.564 540.379 203.226 540.873C202.914 541.367 202.758 541.965 202.758 542.667C202.758 543.109 202.81 543.577 202.914 544.071C203.018 544.539 203.174 545.072 203.382 545.67C203.59 546.268 203.863 546.97 204.201 547.776ZM255.712 537.168C256.05 537.168 256.323 537.207 256.531 537.285C256.765 537.363 256.947 537.519 257.077 537.753C257.207 537.961 257.272 538.312 257.272 538.806C257.272 539.274 257.194 539.625 257.038 539.859C256.908 540.093 256.726 540.249 256.492 540.327C256.258 540.379 255.972 540.405 255.634 540.405H247.561V562.674C247.561 563.012 247.509 563.311 247.405 563.571C247.327 563.831 247.158 564.026 246.898 564.156C246.664 564.312 246.3 564.39 245.806 564.39C245.286 564.39 244.896 564.312 244.636 564.156C244.402 564.026 244.246 563.831 244.168 563.571C244.116 563.285 244.09 562.973 244.09 562.635V540.405H235.9C235.562 540.405 235.276 540.379 235.042 540.327C234.808 540.249 234.626 540.093 234.496 539.859C234.366 539.625 234.301 539.274 234.301 538.806C234.301 538.312 234.353 537.961 234.457 537.753C234.587 537.519 234.769 537.363 235.003 537.285C235.263 537.207 235.549 537.168 235.861 537.168H255.712ZM279.185 561.894C279.393 562.284 279.497 562.622 279.497 562.908C279.523 563.168 279.445 563.415 279.263 563.649C279.081 563.857 278.795 564.052 278.405 564.234C277.781 564.52 277.287 564.585 276.923 564.429C276.585 564.273 276.273 563.896 275.987 563.298L266.237 542.55L256.565 563.259C256.279 563.857 255.954 564.234 255.59 564.39C255.252 564.546 254.758 564.481 254.108 564.195C253.718 564.039 253.432 563.844 253.25 563.61C253.094 563.376 253.029 563.09 253.055 562.752C253.107 562.414 253.237 562.024 253.445 561.582L264.638 538.221C264.794 537.909 265.015 537.662 265.301 537.48C265.613 537.272 265.938 537.168 266.276 537.168C266.51 537.168 266.731 537.207 266.939 537.285C267.147 537.363 267.329 537.48 267.485 537.636C267.641 537.792 267.771 538 267.875 538.26L279.185 561.894ZM258.905 556.629L260.231 553.626H272.321L273.608 556.629H258.905ZM284.376 564.39C283.856 564.39 283.466 564.312 283.206 564.156C282.946 564.026 282.764 563.831 282.66 563.571C282.582 563.311 282.543 562.999 282.543 562.635V538.962C282.543 538.572 282.582 538.247 282.66 537.987C282.738 537.727 282.894 537.532 283.128 537.402C283.388 537.246 283.778 537.168 284.298 537.168C284.818 537.168 285.195 537.246 285.429 537.402C285.689 537.532 285.858 537.727 285.936 537.987C286.014 538.247 286.053 538.559 286.053 538.923V561.114H299.118C299.456 561.114 299.742 561.153 299.976 561.231C300.21 561.309 300.392 561.465 300.522 561.699C300.678 561.933 300.756 562.284 300.756 562.752C300.756 563.194 300.691 563.545 300.561 563.805C300.431 564.039 300.249 564.195 300.015 564.273C299.781 564.351 299.495 564.39 299.157 564.39H284.376ZM306.474 564.39C305.954 564.39 305.564 564.312 305.304 564.156C305.07 564.026 304.914 563.831 304.836 563.571C304.758 563.285 304.719 562.96 304.719 562.596V538.923C304.719 538.247 304.849 537.792 305.109 537.558C305.395 537.298 305.889 537.168 306.591 537.168H322.269C322.633 537.168 322.945 537.207 323.205 537.285C323.465 537.363 323.66 537.532 323.79 537.792C323.92 538.052 323.985 538.442 323.985 538.962C323.985 539.482 323.907 539.872 323.751 540.132C323.621 540.366 323.426 540.522 323.166 540.6C322.906 540.678 322.594 540.717 322.23 540.717H308.229V548.79H317.979C318.343 548.79 318.642 548.829 318.876 548.907C319.136 548.985 319.331 549.141 319.461 549.375C319.591 549.609 319.656 549.973 319.656 550.467C319.656 550.935 319.591 551.286 319.461 551.52C319.331 551.754 319.136 551.91 318.876 551.988C318.616 552.04 318.291 552.066 317.901 552.066H308.229V560.88H322.269C322.633 560.88 322.945 560.919 323.205 560.997C323.465 561.075 323.66 561.244 323.79 561.504C323.92 561.738 323.985 562.115 323.985 562.635C323.985 563.155 323.907 563.545 323.751 563.805C323.621 564.039 323.426 564.195 323.166 564.273C322.906 564.351 322.594 564.39 322.23 564.39H306.474ZM330.266 564.39C329.824 564.39 329.473 564.312 329.213 564.156C328.979 564 328.81 563.792 328.706 563.532C328.628 563.246 328.589 562.921 328.589 562.557V538.806C328.589 538.468 328.641 538.182 328.745 537.948C328.849 537.714 329.031 537.532 329.291 537.402C329.577 537.246 329.967 537.168 330.461 537.168C331.033 537.168 331.436 537.22 331.67 537.324C331.904 537.428 332.138 537.61 332.372 537.87L347.036 558.618V538.806C347.036 538.468 347.075 538.182 347.153 537.948C347.257 537.714 347.439 537.532 347.699 537.402C347.959 537.246 348.336 537.168 348.83 537.168C349.298 537.168 349.649 537.246 349.883 537.402C350.143 537.558 350.312 537.779 350.39 538.065C350.494 538.325 350.546 538.624 350.546 538.962V562.596C350.546 562.934 350.481 563.246 350.351 563.532C350.247 563.792 350.052 564 349.766 564.156C349.506 564.312 349.129 564.39 348.635 564.39C348.219 564.39 347.868 564.338 347.582 564.234C347.322 564.13 347.075 563.935 346.841 563.649L332.099 543.057V562.596C332.099 562.934 332.047 563.246 331.943 563.532C331.839 563.792 331.657 564 331.397 564.156C331.137 564.312 330.76 564.39 330.266 564.39ZM376.559 537.168C376.897 537.168 377.17 537.207 377.378 537.285C377.612 537.363 377.794 537.519 377.924 537.753C378.054 537.961 378.119 538.312 378.119 538.806C378.119 539.274 378.041 539.625 377.885 539.859C377.755 540.093 377.573 540.249 377.339 540.327C377.105 540.379 376.819 540.405 376.481 540.405H368.408V562.674C368.408 563.012 368.356 563.311 368.252 563.571C368.174 563.831 368.005 564.026 367.745 564.156C367.511 564.312 367.147 564.39 366.653 564.39C366.133 564.39 365.743 564.312 365.483 564.156C365.249 564.026 365.093 563.831 365.015 563.571C364.963 563.285 364.937 562.973 364.937 562.635V540.405H356.747C356.409 540.405 356.123 540.379 355.889 540.327C355.655 540.249 355.473 540.093 355.343 539.859C355.213 539.625 355.148 539.274 355.148 538.806C355.148 538.312 355.2 537.961 355.304 537.753C355.434 537.519 355.616 537.363 355.85 537.285C356.11 537.207 356.396 537.168 356.708 537.168H376.559ZM391.71 564.663C389.864 564.663 388.122 564.312 386.484 563.61C384.872 562.908 383.442 561.933 382.194 560.685C380.972 559.411 380.01 557.955 379.308 556.317C378.606 554.679 378.255 552.911 378.255 551.013C378.255 549.089 378.593 547.282 379.269 545.592C379.945 543.876 380.881 542.381 382.077 541.107C383.299 539.833 384.703 538.832 386.289 538.104C387.875 537.376 389.565 537.012 391.359 537.012C393.231 537.012 394.973 537.363 396.585 538.065C398.223 538.767 399.64 539.755 400.836 541.029C402.058 542.277 403.02 543.746 403.722 545.436C404.424 547.126 404.775 548.933 404.775 550.857C404.775 552.755 404.424 554.536 403.722 556.2C403.046 557.838 402.11 559.307 400.914 560.607C399.718 561.881 398.327 562.882 396.741 563.61C395.181 564.312 393.504 564.663 391.71 564.663ZM391.476 561.114C392.828 561.114 394.089 560.854 395.259 560.334C396.455 559.814 397.495 559.086 398.379 558.15C399.263 557.188 399.952 556.096 400.446 554.874C400.966 553.626 401.226 552.274 401.226 550.818C401.226 549.414 400.966 548.101 400.446 546.879C399.952 545.631 399.25 544.539 398.34 543.603C397.456 542.641 396.429 541.887 395.259 541.341C394.089 540.795 392.841 540.522 391.515 540.522C390.189 540.522 388.941 540.795 387.771 541.341C386.601 541.887 385.561 542.628 384.651 543.564C383.767 544.5 383.065 545.592 382.545 546.84C382.051 548.088 381.804 549.427 381.804 550.857C381.804 552.261 382.051 553.587 382.545 554.835C383.065 556.083 383.767 557.175 384.651 558.111C385.561 559.047 386.588 559.788 387.732 560.334C388.902 560.854 390.15 561.114 391.476 561.114ZM416.375 564.78C415.387 564.78 414.451 564.663 413.567 564.429C412.709 564.195 411.916 563.883 411.188 563.493C410.486 563.077 409.862 562.622 409.316 562.128C408.77 561.634 408.341 561.14 408.029 560.646C407.743 560.23 407.561 559.892 407.483 559.632C407.405 559.346 407.418 559.073 407.522 558.813C407.652 558.553 407.899 558.267 408.263 557.955C408.679 557.643 409.043 557.5 409.355 557.526C409.667 557.526 409.953 557.643 410.213 557.877C410.499 558.111 410.785 558.423 411.071 558.813C411.721 559.697 412.514 560.347 413.45 560.763C414.386 561.153 415.309 561.348 416.219 561.348C417.389 561.348 418.429 561.192 419.339 560.88C420.249 560.568 420.964 560.1 421.484 559.476C422.03 558.826 422.303 557.994 422.303 556.98C422.303 556.148 422.095 555.446 421.679 554.874C421.263 554.302 420.704 553.821 420.002 553.431C419.3 553.015 418.52 552.664 417.662 552.378C416.804 552.066 415.933 551.767 415.049 551.481C414.347 551.247 413.658 550.987 412.982 550.701C412.306 550.389 411.669 550.051 411.071 549.687C410.473 549.297 409.94 548.842 409.472 548.322C409.03 547.802 408.679 547.191 408.419 546.489C408.185 545.787 408.068 544.968 408.068 544.032C408.068 542.602 408.406 541.341 409.082 540.249C409.784 539.157 410.759 538.312 412.007 537.714C413.255 537.09 414.698 536.778 416.336 536.778C417.298 536.778 418.182 536.869 418.988 537.051C419.794 537.233 420.509 537.48 421.133 537.792C421.757 538.078 422.29 538.39 422.732 538.728C423.174 539.04 423.512 539.339 423.746 539.625C424.214 540.119 424.474 540.535 424.526 540.873C424.578 541.211 424.383 541.627 423.941 542.121C423.525 542.589 423.122 542.836 422.732 542.862C422.342 542.888 421.913 542.706 421.445 542.316C420.951 541.744 420.431 541.302 419.885 540.99C419.365 540.678 418.806 540.47 418.208 540.366C417.636 540.236 416.999 540.171 416.297 540.171C415.621 540.171 414.984 540.262 414.386 540.444C413.814 540.6 413.307 540.847 412.865 541.185C412.449 541.523 412.124 541.939 411.89 542.433C411.656 542.901 411.539 543.447 411.539 544.071C411.539 544.773 411.721 545.371 412.085 545.865C412.475 546.359 412.982 546.788 413.606 547.152C414.23 547.49 414.932 547.802 415.712 548.088C416.492 548.348 417.311 548.608 418.169 548.868C419.105 549.154 420.028 549.505 420.938 549.921C421.848 550.311 422.667 550.805 423.395 551.403C424.123 551.975 424.708 552.703 425.15 553.587C425.592 554.471 425.813 555.563 425.813 556.863C425.813 558.163 425.553 559.307 425.033 560.295C424.539 561.283 423.85 562.115 422.966 562.791C422.082 563.441 421.068 563.935 419.924 564.273C418.806 564.611 417.623 564.78 416.375 564.78Z" fill="#F8F3E6"/>
<path d="M78.624 450.32C79.136 451.28 79.424 452.144 79.488 452.912C79.616 453.68 79.68 454.8 79.68 456.272V509.552C79.68 513.968 78.464 516.56 76.032 517.328C74.816 517.712 73.28 517.904 71.424 517.904C69.568 517.904 68.096 517.744 67.008 517.424C65.92 517.104 65.088 516.72 64.512 516.272C63.936 515.824 63.488 515.184 63.168 514.352C62.848 513.264 62.688 511.6 62.688 509.36V477.2C61.088 479.184 58.752 482.352 55.68 486.704C52.608 490.992 50.656 493.68 49.824 494.768C48.992 495.856 48.416 496.624 48.096 497.072C47.776 497.456 46.976 498.032 45.696 498.8C44.48 499.504 43.136 499.856 41.664 499.856C40.256 499.856 38.944 499.536 37.728 498.896C36.576 498.192 35.744 497.52 35.232 496.88L34.464 495.824C33.184 494.224 30.656 490.832 26.88 485.648C23.104 480.4 21.056 477.584 20.736 477.2V509.552C20.736 511.024 20.672 512.144 20.544 512.912C20.48 513.616 20.192 514.416 19.68 515.312C18.72 517.04 16.224 517.904 12.192 517.904C8.288 517.904 5.856 517.04 4.896 515.312C4.384 514.416 4.064 513.584 3.936 512.816C3.872 512.048 3.84 510.896 3.84 509.36V456.08C3.84 454.608 3.872 453.52 3.936 452.816C4.064 452.048 4.384 451.184 4.896 450.224C5.856 448.56 8.352 447.728 12.384 447.728C14.112 447.728 15.584 447.952 16.8 448.4C18.08 448.784 18.912 449.2 19.296 449.648L19.872 450.224L41.664 478.832C52.544 464.432 59.808 454.928 63.456 450.32C64.544 448.592 67.104 447.728 71.136 447.728C75.232 447.728 77.728 448.592 78.624 450.32ZM120.395 446.768C129.867 446.768 138.091 450.192 145.067 457.04C152.043 463.888 155.531 472.4 155.531 482.576C155.531 492.688 152.203 501.328 145.547 508.496C138.891 515.6 130.699 519.152 120.971 519.152C111.243 519.152 102.955 515.632 96.1073 508.592C89.3233 501.552 85.9313 493.168 85.9313 483.44C85.9313 478.128 86.8913 473.168 88.8113 468.56C90.7313 463.888 93.2913 459.984 96.4913 456.848C99.6913 453.712 103.371 451.248 107.531 449.456C111.691 447.664 115.979 446.768 120.395 446.768ZM102.923 482.96C102.923 488.656 104.747 493.296 108.395 496.88C112.107 500.4 116.235 502.16 120.779 502.16C125.323 502.16 129.419 500.432 133.067 496.976C136.715 493.52 138.539 488.88 138.539 483.056C138.539 477.232 136.683 472.56 132.971 469.04C129.323 465.52 125.227 463.76 120.683 463.76C116.139 463.76 112.043 465.552 108.395 469.136C104.747 472.656 102.923 477.264 102.923 482.96ZM198.481 475.568H215.377C218.833 475.696 220.945 476.592 221.713 478.256C222.353 479.472 222.673 481.264 222.673 483.632V504.752C222.673 506.8 221.777 508.752 219.985 510.608C214.609 516.176 206.545 518.96 195.793 518.96C186.257 518.96 177.969 515.376 170.929 508.208C163.889 500.976 160.369 492.272 160.369 482.096C160.369 471.92 163.953 463.44 171.121 456.656C178.289 449.808 186.737 446.384 196.465 446.384C204.017 446.384 211.153 448.88 217.873 453.872C219.601 455.152 220.465 456.592 220.465 458.192C220.465 459.728 219.729 461.52 218.257 463.568C215.761 466.96 213.489 468.656 211.441 468.656C210.225 468.656 208.273 467.792 205.585 466.064C202.897 464.272 199.697 463.376 195.985 463.376C191.121 463.376 186.801 465.104 183.025 468.56C179.249 471.952 177.361 476.432 177.361 482C177.361 487.504 179.281 492.208 183.121 496.112C186.961 499.952 191.313 501.872 196.177 501.872C199.697 501.872 202.865 501.296 205.681 500.144V489.68H198.097C196.113 489.68 194.705 489.424 193.873 488.912C193.041 488.4 192.497 487.664 192.241 486.704C191.985 485.68 191.857 484.336 191.857 482.672C191.857 480.944 191.985 479.568 192.241 478.544C192.561 477.52 193.105 476.816 193.873 476.432C195.025 475.856 196.561 475.568 198.481 475.568ZM284.196 506.096C285.156 508.4 285.636 510.064 285.636 511.088C285.636 513.52 283.652 515.568 279.684 517.232C277.636 518.128 275.972 518.576 274.692 518.576C273.476 518.576 272.452 518.288 271.62 517.712C270.852 517.072 270.276 516.432 269.892 515.792C269.252 514.576 266.756 508.784 262.404 498.416L259.428 498.608H247.332V509.456C247.332 510.928 247.268 512.048 247.14 512.816C247.076 513.52 246.788 514.352 246.276 515.312C245.38 517.04 242.884 517.904 238.788 517.904C234.308 517.904 231.684 516.72 230.916 514.352C230.532 513.264 230.34 511.6 230.34 509.36V456.08C230.34 454.608 230.372 453.52 230.436 452.816C230.564 452.048 230.884 451.184 231.396 450.224C232.292 448.496 234.788 447.632 238.884 447.632H259.62C265.252 447.632 270.724 449.68 276.036 453.776C278.596 455.76 280.708 458.448 282.372 461.84C284.036 465.232 284.868 469.008 284.868 473.168C284.868 480.4 282.468 486.352 277.668 491.024C279.076 494.416 281.252 499.44 284.196 506.096ZM247.332 481.616H259.62C261.476 481.616 263.332 480.912 265.188 479.504C267.044 478.096 267.972 475.984 267.972 473.168C267.972 470.352 267.044 468.24 265.188 466.832C263.332 465.36 261.412 464.624 259.428 464.624H247.332V481.616ZM331.511 452.624L357.431 506.192C358.519 508.368 359.063 510 359.063 511.088C359.063 513.392 357.207 515.472 353.495 517.328C351.319 518.416 349.591 518.96 348.311 518.96C347.095 518.96 346.071 518.672 345.239 518.096C344.471 517.52 343.895 516.912 343.51 516.272C343.191 515.632 342.711 514.672 342.071 513.392L337.079 503.024H310.487L305.495 513.392C304.855 514.672 304.343 515.6 303.959 516.176C303.639 516.752 303.063 517.36 302.231 518C301.463 518.576 300.439 518.864 299.159 518.864C297.943 518.864 296.247 518.32 294.071 517.232C290.359 515.44 288.503 513.392 288.503 511.088C288.503 510 289.047 508.368 290.135 506.192L316.055 452.528C316.759 451.056 317.815 449.872 319.223 448.976C320.695 448.08 322.231 447.632 323.831 447.632C327.287 447.632 329.847 449.296 331.511 452.624ZM323.735 475.664L317.399 488.816H330.167L323.735 475.664ZM409.717 450.608C410.357 449.456 411.285 448.688 412.501 448.304C413.717 447.92 415.221 447.728 417.013 447.728C418.869 447.728 420.341 447.888 421.429 448.208C422.581 448.528 423.413 448.912 423.925 449.36C424.501 449.808 424.917 450.48 425.173 451.376C425.557 452.4 425.749 454.032 425.749 456.272V509.552C425.749 511.088 425.685 512.208 425.557 512.912C425.493 513.616 425.205 514.448 424.693 515.408C423.797 517.136 421.301 518 417.205 518C414.709 518 412.981 517.808 412.021 517.424C411.061 517.04 410.261 516.432 409.621 515.6C395.221 496.4 385.749 483.856 381.205 477.968V509.552C381.205 511.088 381.141 512.208 381.013 512.912C380.949 513.616 380.661 514.448 380.149 515.408C379.253 517.136 376.757 518 372.661 518C368.693 518 366.261 517.136 365.365 515.408C364.853 514.448 364.533 513.584 364.405 512.816C364.341 512.048 364.309 510.928 364.309 509.456V455.888C364.309 453.456 364.597 451.696 365.173 450.608C365.813 449.456 366.741 448.688 367.957 448.304C369.173 447.92 370.741 447.728 372.661 447.728C374.581 447.728 376.085 447.92 377.173 448.304C378.325 448.624 379.125 449.008 379.573 449.456C379.829 449.648 380.565 450.48 381.781 451.952C395.285 470.32 404.309 482.448 408.853 488.336V455.888C408.853 453.456 409.141 451.696 409.717 450.608Z" fill="#F8F3E6"/>
</svg>
