<svg width="546" height="199" viewBox="0 0 546 199" fill="none" xmlns="http://www.w3.org/2000/svg">
<path d="M29.35 152.6C29.7833 152.6 30.1333 152.65 30.4 152.75C30.7 152.85 30.9333 153.05 31.1 153.35C31.2667 153.617 31.35 154.067 31.35 154.7C31.35 155.3 31.25 155.75 31.05 156.05C30.8833 156.35 30.65 156.55 30.35 156.65C30.05 156.717 29.6833 156.75 29.25 156.75H18.9V185.3C18.9 185.733 18.8333 186.117 18.7 186.45C18.6 186.783 18.3833 187.033 18.05 187.2C17.75 187.4 17.2833 187.5 16.65 187.5C15.9833 187.5 15.4833 187.4 15.15 187.2C14.85 187.033 14.65 186.783 14.55 186.45C14.4833 186.083 14.45 185.683 14.45 185.25V156.75H3.95C3.51667 156.75 3.15 156.717 2.85 156.65C2.55 156.55 2.31667 156.35 2.15 156.05C1.98333 155.75 1.9 155.3 1.9 154.7C1.9 154.067 1.96667 153.617 2.1 153.35C2.26667 153.05 2.5 152.85 2.8 152.75C3.13333 152.65 3.5 152.6 3.9 152.6H29.35ZM59.443 184.3C59.7096 184.8 59.843 185.233 59.843 185.6C59.8763 185.933 59.7763 186.25 59.543 186.55C59.3096 186.817 58.943 187.067 58.443 187.3C57.643 187.667 57.0096 187.75 56.543 187.55C56.1096 187.35 55.7096 186.867 55.343 186.1L42.843 159.5L30.443 186.05C30.0763 186.817 29.6596 187.3 29.193 187.5C28.7596 187.7 28.1263 187.617 27.293 187.25C26.793 187.05 26.4263 186.8 26.193 186.5C25.993 186.2 25.9096 185.833 25.943 185.4C26.0096 184.967 26.1763 184.467 26.443 183.9L40.793 153.95C40.993 153.55 41.2763 153.233 41.643 153C42.043 152.733 42.4596 152.6 42.893 152.6C43.193 152.6 43.4763 152.65 43.743 152.75C44.0096 152.85 44.243 153 44.443 153.2C44.643 153.4 44.8096 153.667 44.943 154L59.443 184.3ZM33.443 177.55L35.143 173.7H50.643L52.293 177.55H33.443ZM66.098 187.5C65.4314 187.5 64.9314 187.4 64.598 187.2C64.2647 187.033 64.0314 186.783 63.898 186.45C63.798 186.117 63.748 185.717 63.748 185.25V154.9C63.748 154.4 63.798 153.983 63.898 153.65C63.998 153.317 64.198 153.067 64.498 152.9C64.8314 152.7 65.3314 152.6 65.998 152.6C66.6647 152.6 67.148 152.7 67.448 152.9C67.7814 153.067 67.998 153.317 68.098 153.65C68.198 153.983 68.248 154.383 68.248 154.85V183.3H84.998C85.4314 183.3 85.798 183.35 86.098 183.45C86.398 183.55 86.6314 183.75 86.798 184.05C86.998 184.35 87.098 184.8 87.098 185.4C87.098 185.967 87.0147 186.417 86.848 186.75C86.6814 187.05 86.448 187.25 86.148 187.35C85.848 187.45 85.4814 187.5 85.048 187.5H66.098ZM93.9789 187.5C93.3122 187.5 92.8122 187.4 92.4789 187.2C92.1456 187.033 91.9122 186.783 91.7789 186.45C91.6789 186.117 91.6289 185.717 91.6289 185.25V154.9C91.6289 154.4 91.6789 153.983 91.7789 153.65C91.8789 153.317 92.0789 153.067 92.3789 152.9C92.7122 152.7 93.2122 152.6 93.8789 152.6C94.5456 152.6 95.0289 152.7 95.3289 152.9C95.6622 153.067 95.8789 153.317 95.9789 153.65C96.0789 153.983 96.1289 154.383 96.1289 154.85V183.3H112.879C113.312 183.3 113.679 183.35 113.979 183.45C114.279 183.55 114.512 183.75 114.679 184.05C114.879 184.35 114.979 184.8 114.979 185.4C114.979 185.967 114.896 186.417 114.729 186.75C114.562 187.05 114.329 187.25 114.029 187.35C113.729 187.45 113.362 187.5 112.929 187.5H93.9789ZM122.31 187.5C121.643 187.5 121.143 187.4 120.81 187.2C120.51 187.033 120.31 186.783 120.21 186.45C120.11 186.083 120.06 185.667 120.06 185.2V154.85C120.06 153.983 120.226 153.4 120.56 153.1C120.926 152.767 121.56 152.6 122.46 152.6H142.56C143.026 152.6 143.426 152.65 143.76 152.75C144.093 152.85 144.343 153.067 144.51 153.4C144.676 153.733 144.76 154.233 144.76 154.9C144.76 155.567 144.66 156.067 144.46 156.4C144.293 156.7 144.043 156.9 143.71 157C143.376 157.1 142.976 157.15 142.51 157.15H124.56V167.5H137.06C137.526 167.5 137.91 167.55 138.21 167.65C138.543 167.75 138.793 167.95 138.96 168.25C139.126 168.55 139.21 169.017 139.21 169.65C139.21 170.25 139.126 170.7 138.96 171C138.793 171.3 138.543 171.5 138.21 171.6C137.876 171.667 137.46 171.7 136.96 171.7H124.56V183H142.56C143.026 183 143.426 183.05 143.76 183.15C144.093 183.25 144.343 183.467 144.51 183.8C144.676 184.1 144.76 184.583 144.76 185.25C144.76 185.917 144.66 186.417 144.46 186.75C144.293 187.05 144.043 187.25 143.71 187.35C143.376 187.45 142.976 187.5 142.51 187.5H122.31ZM153.412 187.5C152.779 187.5 152.295 187.4 151.962 187.2C151.629 187.033 151.412 186.783 151.312 186.45C151.245 186.083 151.212 185.667 151.212 185.2V154.8C151.212 154.367 151.262 154 151.362 153.7C151.495 153.367 151.712 153.1 152.012 152.9C152.345 152.7 152.829 152.6 153.462 152.6H164.512C166.145 152.6 167.629 152.85 168.962 153.35C170.329 153.817 171.512 154.517 172.512 155.45C173.512 156.383 174.279 157.567 174.812 159C175.379 160.4 175.662 162.033 175.662 163.9C175.662 165.067 175.479 166.283 175.112 167.55C174.745 168.783 174.179 169.95 173.412 171.05C172.679 172.15 171.729 173.067 170.562 173.8C169.395 174.533 167.979 174.95 166.312 175.05H155.712V185.25C155.712 185.717 155.645 186.117 155.512 186.45C155.412 186.783 155.195 187.033 154.862 187.2C154.562 187.4 154.079 187.5 153.412 187.5ZM174.862 186.95C174.162 187.417 173.562 187.567 173.062 187.4C172.595 187.233 172.145 186.833 171.712 186.2L163.712 173.4L168.662 172.65L175.562 183.65C175.895 184.183 176.095 184.633 176.162 185C176.262 185.367 176.195 185.7 175.962 186C175.762 186.3 175.395 186.617 174.862 186.95ZM155.712 170.65H165.612C166.379 170.65 167.095 170.517 167.762 170.25C168.429 169.95 169.012 169.517 169.512 168.95C170.012 168.383 170.412 167.683 170.712 166.85C171.012 166.017 171.162 165.017 171.162 163.85C171.162 162.417 170.895 161.2 170.362 160.2C169.862 159.2 169.112 158.45 168.112 157.95C167.112 157.417 165.879 157.15 164.412 157.15H155.712V170.65ZM184.663 187.5C183.997 187.5 183.497 187.4 183.163 187.2C182.863 187.033 182.663 186.783 182.563 186.45C182.463 186.083 182.413 185.667 182.413 185.2V154.85C182.413 153.983 182.58 153.4 182.913 153.1C183.28 152.767 183.913 152.6 184.813 152.6H204.913C205.38 152.6 205.78 152.65 206.113 152.75C206.447 152.85 206.697 153.067 206.863 153.4C207.03 153.733 207.113 154.233 207.113 154.9C207.113 155.567 207.013 156.067 206.813 156.4C206.647 156.7 206.397 156.9 206.063 157C205.73 157.1 205.33 157.15 204.863 157.15H186.913V167.5H199.413C199.88 167.5 200.263 167.55 200.563 167.65C200.897 167.75 201.147 167.95 201.313 168.25C201.48 168.55 201.563 169.017 201.563 169.65C201.563 170.25 201.48 170.7 201.313 171C201.147 171.3 200.897 171.5 200.563 171.6C200.23 171.667 199.813 171.7 199.313 171.7H186.913V183H204.913C205.38 183 205.78 183.05 206.113 183.15C206.447 183.25 206.697 183.467 206.863 183.8C207.03 184.1 207.113 184.583 207.113 185.25C207.113 185.917 207.013 186.417 206.813 186.75C206.647 187.05 206.397 187.25 206.063 187.35C205.73 187.45 205.33 187.5 204.863 187.5H184.663ZM223.316 188C222.049 188 220.849 187.85 219.716 187.55C218.616 187.25 217.599 186.85 216.666 186.35C215.766 185.817 214.966 185.233 214.266 184.6C213.566 183.967 213.016 183.333 212.616 182.7C212.249 182.167 212.016 181.733 211.916 181.4C211.816 181.033 211.832 180.683 211.966 180.35C212.132 180.017 212.449 179.65 212.916 179.25C213.449 178.85 213.916 178.667 214.316 178.7C214.716 178.7 215.082 178.85 215.416 179.15C215.782 179.45 216.149 179.85 216.516 180.35C217.349 181.483 218.366 182.317 219.566 182.85C220.766 183.35 221.949 183.6 223.116 183.6C224.616 183.6 225.949 183.4 227.116 183C228.282 182.6 229.199 182 229.866 181.2C230.566 180.367 230.916 179.3 230.916 178C230.916 176.933 230.649 176.033 230.116 175.3C229.582 174.567 228.866 173.95 227.966 173.45C227.066 172.917 226.066 172.467 224.966 172.1C223.866 171.7 222.749 171.317 221.616 170.95C220.716 170.65 219.832 170.317 218.966 169.95C218.099 169.55 217.282 169.117 216.516 168.65C215.749 168.15 215.066 167.567 214.466 166.9C213.899 166.233 213.449 165.45 213.116 164.55C212.816 163.65 212.666 162.6 212.666 161.4C212.666 159.567 213.099 157.95 213.966 156.55C214.866 155.15 216.116 154.067 217.716 153.3C219.316 152.5 221.166 152.1 223.266 152.1C224.499 152.1 225.632 152.217 226.666 152.45C227.699 152.683 228.616 153 229.416 153.4C230.216 153.767 230.899 154.167 231.466 154.6C232.032 155 232.466 155.383 232.766 155.75C233.366 156.383 233.699 156.917 233.766 157.35C233.832 157.783 233.582 158.317 233.016 158.95C232.482 159.55 231.966 159.867 231.466 159.9C230.966 159.933 230.416 159.7 229.816 159.2C229.182 158.467 228.516 157.9 227.816 157.5C227.149 157.1 226.432 156.833 225.666 156.7C224.932 156.533 224.116 156.45 223.216 156.45C222.349 156.45 221.532 156.567 220.766 156.8C220.032 157 219.382 157.317 218.816 157.75C218.282 158.183 217.866 158.717 217.566 159.35C217.266 159.95 217.116 160.65 217.116 161.45C217.116 162.35 217.349 163.117 217.816 163.75C218.316 164.383 218.966 164.933 219.766 165.4C220.566 165.833 221.466 166.233 222.466 166.6C223.466 166.933 224.516 167.267 225.616 167.6C226.816 167.967 227.999 168.417 229.166 168.95C230.332 169.45 231.382 170.083 232.316 170.85C233.249 171.583 233.999 172.517 234.566 173.65C235.132 174.783 235.416 176.183 235.416 177.85C235.416 179.517 235.082 180.983 234.416 182.25C233.782 183.517 232.899 184.583 231.766 185.45C230.632 186.283 229.332 186.917 227.866 187.35C226.432 187.783 224.916 188 223.316 188ZM262.546 187.6C260.28 187.6 258.346 187.25 256.746 186.55C255.146 185.817 253.913 184.75 253.046 183.35C252.213 181.95 251.796 180.267 251.796 178.3C251.796 177.233 252.046 176.167 252.546 175.1C253.046 174 253.763 172.9 254.696 171.8C255.663 170.667 256.813 169.567 258.146 168.5C257.68 167.533 257.246 166.567 256.846 165.6C256.48 164.6 256.196 163.633 255.996 162.7C255.796 161.733 255.696 160.817 255.696 159.95C255.696 158.25 256.08 156.783 256.846 155.55C257.613 154.317 258.696 153.367 260.096 152.7C261.496 152.033 263.163 151.7 265.096 151.7C266.763 151.7 268.196 152.017 269.396 152.65C270.63 153.25 271.58 154.1 272.246 155.2C272.913 156.3 273.246 157.617 273.246 159.15C273.246 159.883 273.013 160.667 272.546 161.5C272.08 162.3 271.413 163.15 270.546 164.05C269.68 164.917 268.68 165.833 267.546 166.8C266.413 167.733 265.18 168.717 263.846 169.75C264.746 171.083 265.663 172.35 266.596 173.55C267.563 174.717 268.546 175.783 269.546 176.75C270.58 177.683 271.563 178.483 272.496 179.15C273.796 178.083 274.696 177.1 275.196 176.2C275.696 175.267 276.046 174.333 276.246 173.4C276.346 173 276.58 172.667 276.946 172.4C277.313 172.1 277.93 171.95 278.796 171.95C279.363 171.95 279.78 172.05 280.046 172.25C280.346 172.417 280.546 172.65 280.646 172.95C280.78 173.217 280.83 173.483 280.796 173.75C280.73 175.017 280.28 176.283 279.446 177.55C278.646 178.817 277.53 180.1 276.096 181.4C276.63 181.567 277.096 181.717 277.496 181.85C277.93 181.983 278.413 182.083 278.946 182.15C279.48 182.183 280.163 182.2 280.996 182.2C281.763 182.2 282.296 182.367 282.596 182.7C282.93 183 283.096 183.55 283.096 184.35C283.096 185.317 282.946 185.967 282.646 186.3C282.346 186.633 281.78 186.8 280.946 186.8C280.013 186.8 279.046 186.733 278.046 186.6C277.08 186.467 276.113 186.233 275.146 185.9C274.18 185.567 273.18 185.117 272.146 184.55C271.246 185.183 270.263 185.733 269.196 186.2C268.13 186.667 267.03 187.017 265.896 187.25C264.796 187.483 263.68 187.6 262.546 187.6ZM262.546 183.35C263.68 183.35 264.763 183.2 265.796 182.9C266.83 182.6 267.696 182.217 268.396 181.75C267.83 181.217 267.196 180.617 266.496 179.95C265.796 179.25 265.096 178.5 264.396 177.7C263.696 176.9 262.996 176.05 262.296 175.15C261.596 174.25 260.93 173.333 260.296 172.4C259.596 173.067 258.996 173.667 258.496 174.2C257.996 174.7 257.596 175.167 257.296 175.6C256.996 176 256.78 176.433 256.646 176.9C256.513 177.333 256.446 177.8 256.446 178.3C256.446 179.333 256.696 180.233 257.196 181C257.696 181.767 258.396 182.35 259.296 182.75C260.23 183.15 261.313 183.35 262.546 183.35ZM261.796 166.2C262.896 165.367 263.88 164.617 264.746 163.95C265.646 163.25 266.396 162.6 266.996 162C267.596 161.4 268.063 160.85 268.396 160.35C268.73 159.85 268.896 159.417 268.896 159.05C268.896 157.95 268.546 157.067 267.846 156.4C267.146 155.7 266.213 155.35 265.046 155.35C264.013 155.35 263.113 155.533 262.346 155.9C261.58 156.233 260.98 156.717 260.546 157.35C260.146 157.983 259.946 158.75 259.946 159.65C259.946 160.217 260.013 160.817 260.146 161.45C260.28 162.05 260.48 162.733 260.746 163.5C261.013 164.267 261.363 165.167 261.796 166.2ZM327.836 152.6C328.27 152.6 328.62 152.65 328.886 152.75C329.186 152.85 329.42 153.05 329.586 153.35C329.753 153.617 329.836 154.067 329.836 154.7C329.836 155.3 329.736 155.75 329.536 156.05C329.37 156.35 329.136 156.55 328.836 156.65C328.536 156.717 328.17 156.75 327.736 156.75H317.386V185.3C317.386 185.733 317.32 186.117 317.186 186.45C317.086 186.783 316.87 187.033 316.536 187.2C316.236 187.4 315.77 187.5 315.136 187.5C314.47 187.5 313.97 187.4 313.636 187.2C313.336 187.033 313.136 186.783 313.036 186.45C312.97 186.083 312.936 185.683 312.936 185.25V156.75H302.436C302.003 156.75 301.636 156.717 301.336 156.65C301.036 156.55 300.803 156.35 300.636 156.05C300.47 155.75 300.386 155.3 300.386 154.7C300.386 154.067 300.453 153.617 300.586 153.35C300.753 153.05 300.986 152.85 301.286 152.75C301.62 152.65 301.986 152.6 302.386 152.6H327.836ZM357.929 184.3C358.196 184.8 358.329 185.233 358.329 185.6C358.363 185.933 358.263 186.25 358.029 186.55C357.796 186.817 357.429 187.067 356.929 187.3C356.129 187.667 355.496 187.75 355.029 187.55C354.596 187.35 354.196 186.867 353.829 186.1L341.329 159.5L328.929 186.05C328.563 186.817 328.146 187.3 327.679 187.5C327.246 187.7 326.613 187.617 325.779 187.25C325.279 187.05 324.913 186.8 324.679 186.5C324.479 186.2 324.396 185.833 324.429 185.4C324.496 184.967 324.663 184.467 324.929 183.9L339.279 153.95C339.479 153.55 339.763 153.233 340.129 153C340.529 152.733 340.946 152.6 341.379 152.6C341.679 152.6 341.963 152.65 342.229 152.75C342.496 152.85 342.729 153 342.929 153.2C343.129 153.4 343.296 153.667 343.429 154L357.929 184.3ZM331.929 177.55L333.629 173.7H349.129L350.779 177.55H331.929ZM364.584 187.5C363.918 187.5 363.418 187.4 363.084 187.2C362.751 187.033 362.518 186.783 362.384 186.45C362.284 186.117 362.234 185.717 362.234 185.25V154.9C362.234 154.4 362.284 153.983 362.384 153.65C362.484 153.317 362.684 153.067 362.984 152.9C363.318 152.7 363.818 152.6 364.484 152.6C365.151 152.6 365.634 152.7 365.934 152.9C366.268 153.067 366.484 153.317 366.584 153.65C366.684 153.983 366.734 154.383 366.734 154.85V183.3H383.484C383.918 183.3 384.284 183.35 384.584 183.45C384.884 183.55 385.118 183.75 385.284 184.05C385.484 184.35 385.584 184.8 385.584 185.4C385.584 185.967 385.501 186.417 385.334 186.75C385.168 187.05 384.934 187.25 384.634 187.35C384.334 187.45 383.968 187.5 383.534 187.5H364.584ZM392.915 187.5C392.249 187.5 391.749 187.4 391.415 187.2C391.115 187.033 390.915 186.783 390.815 186.45C390.715 186.083 390.665 185.667 390.665 185.2V154.85C390.665 153.983 390.832 153.4 391.165 153.1C391.532 152.767 392.165 152.6 393.065 152.6H413.165C413.632 152.6 414.032 152.65 414.365 152.75C414.699 152.85 414.949 153.067 415.115 153.4C415.282 153.733 415.365 154.233 415.365 154.9C415.365 155.567 415.265 156.067 415.065 156.4C414.899 156.7 414.649 156.9 414.315 157C413.982 157.1 413.582 157.15 413.115 157.15H395.165V167.5H407.665C408.132 167.5 408.515 167.55 408.815 167.65C409.149 167.75 409.399 167.95 409.565 168.25C409.732 168.55 409.815 169.017 409.815 169.65C409.815 170.25 409.732 170.7 409.565 171C409.399 171.3 409.149 171.5 408.815 171.6C408.482 171.667 408.065 171.7 407.565 171.7H395.165V183H413.165C413.632 183 414.032 183.05 414.365 183.15C414.699 183.25 414.949 183.467 415.115 183.8C415.282 184.1 415.365 184.583 415.365 185.25C415.365 185.917 415.265 186.417 415.065 186.75C414.899 187.05 414.649 187.25 414.315 187.35C413.982 187.45 413.582 187.5 413.115 187.5H392.915ZM423.418 187.5C422.851 187.5 422.401 187.4 422.068 187.2C421.768 187 421.551 186.733 421.418 186.4C421.318 186.033 421.268 185.617 421.268 185.15V154.7C421.268 154.267 421.334 153.9 421.468 153.6C421.601 153.3 421.834 153.067 422.168 152.9C422.534 152.7 423.034 152.6 423.668 152.6C424.401 152.6 424.918 152.667 425.218 152.8C425.518 152.933 425.818 153.167 426.118 153.5L444.918 180.1V154.7C444.918 154.267 444.968 153.9 445.068 153.6C445.201 153.3 445.434 153.067 445.768 152.9C446.101 152.7 446.584 152.6 447.218 152.6C447.818 152.6 448.268 152.7 448.568 152.9C448.901 153.1 449.118 153.383 449.218 153.75C449.351 154.083 449.418 154.467 449.418 154.9V185.2C449.418 185.633 449.334 186.033 449.168 186.4C449.034 186.733 448.784 187 448.418 187.2C448.084 187.4 447.601 187.5 446.968 187.5C446.434 187.5 445.984 187.433 445.618 187.3C445.284 187.167 444.968 186.917 444.668 186.55L425.768 160.15V185.2C425.768 185.633 425.701 186.033 425.568 186.4C425.434 186.733 425.201 187 424.868 187.2C424.534 187.4 424.051 187.5 423.418 187.5ZM482.768 152.6C483.201 152.6 483.551 152.65 483.818 152.75C484.118 152.85 484.351 153.05 484.518 153.35C484.685 153.617 484.768 154.067 484.768 154.7C484.768 155.3 484.668 155.75 484.468 156.05C484.301 156.35 484.068 156.55 483.768 156.65C483.468 156.717 483.101 156.75 482.668 156.75H472.318V185.3C472.318 185.733 472.251 186.117 472.118 186.45C472.018 186.783 471.801 187.033 471.468 187.2C471.168 187.4 470.701 187.5 470.068 187.5C469.401 187.5 468.901 187.4 468.568 187.2C468.268 187.033 468.068 186.783 467.968 186.45C467.901 186.083 467.868 185.683 467.868 185.25V156.75H457.368C456.935 156.75 456.568 156.717 456.268 156.65C455.968 156.55 455.735 156.35 455.568 156.05C455.401 155.75 455.318 155.3 455.318 154.7C455.318 154.067 455.385 153.617 455.518 153.35C455.685 153.05 455.918 152.85 456.218 152.75C456.551 152.65 456.918 152.6 457.318 152.6H482.768ZM502.193 187.85C499.826 187.85 497.593 187.4 495.493 186.5C493.426 185.6 491.593 184.35 489.993 182.75C488.426 181.117 487.193 179.25 486.293 177.15C485.393 175.05 484.943 172.783 484.943 170.35C484.943 167.883 485.376 165.567 486.243 163.4C487.109 161.2 488.309 159.283 489.843 157.65C491.409 156.017 493.209 154.733 495.243 153.8C497.276 152.867 499.443 152.4 501.743 152.4C504.143 152.4 506.376 152.85 508.443 153.75C510.543 154.65 512.359 155.917 513.893 157.55C515.459 159.15 516.693 161.033 517.593 163.2C518.493 165.367 518.943 167.683 518.943 170.15C518.943 172.583 518.493 174.867 517.593 177C516.726 179.1 515.526 180.983 513.993 182.65C512.459 184.283 510.676 185.567 508.643 186.5C506.643 187.4 504.493 187.85 502.193 187.85ZM501.893 183.3C503.626 183.3 505.243 182.967 506.743 182.3C508.276 181.633 509.609 180.7 510.743 179.5C511.876 178.267 512.759 176.867 513.393 175.3C514.059 173.7 514.393 171.967 514.393 170.1C514.393 168.3 514.059 166.617 513.393 165.05C512.759 163.45 511.859 162.05 510.693 160.85C509.559 159.617 508.243 158.65 506.743 157.95C505.243 157.25 503.643 156.9 501.943 156.9C500.243 156.9 498.643 157.25 497.143 157.95C495.643 158.65 494.309 159.6 493.143 160.8C492.009 162 491.109 163.4 490.443 165C489.809 166.6 489.493 168.317 489.493 170.15C489.493 171.95 489.809 173.65 490.443 175.25C491.109 176.85 492.009 178.25 493.143 179.45C494.309 180.65 495.626 181.6 497.093 182.3C498.593 182.967 500.193 183.3 501.893 183.3ZM533.814 188C532.547 188 531.347 187.85 530.214 187.55C529.114 187.25 528.097 186.85 527.164 186.35C526.264 185.817 525.464 185.233 524.764 184.6C524.064 183.967 523.514 183.333 523.114 182.7C522.747 182.167 522.514 181.733 522.414 181.4C522.314 181.033 522.33 180.683 522.464 180.35C522.63 180.017 522.947 179.65 523.414 179.25C523.947 178.85 524.414 178.667 524.814 178.7C525.214 178.7 525.58 178.85 525.914 179.15C526.28 179.45 526.647 179.85 527.014 180.35C527.847 181.483 528.864 182.317 530.064 182.85C531.264 183.35 532.447 183.6 533.614 183.6C535.114 183.6 536.447 183.4 537.614 183C538.78 182.6 539.697 182 540.364 181.2C541.064 180.367 541.414 179.3 541.414 178C541.414 176.933 541.147 176.033 540.614 175.3C540.08 174.567 539.364 173.95 538.464 173.45C537.564 172.917 536.564 172.467 535.464 172.1C534.364 171.7 533.247 171.317 532.114 170.95C531.214 170.65 530.33 170.317 529.464 169.95C528.597 169.55 527.78 169.117 527.014 168.65C526.247 168.15 525.564 167.567 524.964 166.9C524.397 166.233 523.947 165.45 523.614 164.55C523.314 163.65 523.164 162.6 523.164 161.4C523.164 159.567 523.597 157.95 524.464 156.55C525.364 155.15 526.614 154.067 528.214 153.3C529.814 152.5 531.664 152.1 533.764 152.1C534.997 152.1 536.13 152.217 537.164 152.45C538.197 152.683 539.114 153 539.914 153.4C540.714 153.767 541.397 154.167 541.964 154.6C542.53 155 542.964 155.383 543.264 155.75C543.864 156.383 544.197 156.917 544.264 157.35C544.33 157.783 544.08 158.317 543.514 158.95C542.98 159.55 542.464 159.867 541.964 159.9C541.464 159.933 540.914 159.7 540.314 159.2C539.68 158.467 539.014 157.9 538.314 157.5C537.647 157.1 536.93 156.833 536.164 156.7C535.43 156.533 534.614 156.45 533.714 156.45C532.847 156.45 532.03 156.567 531.264 156.8C530.53 157 529.88 157.317 529.314 157.75C528.78 158.183 528.364 158.717 528.064 159.35C527.764 159.95 527.614 160.65 527.614 161.45C527.614 162.35 527.847 163.117 528.314 163.75C528.814 164.383 529.464 164.933 530.264 165.4C531.064 165.833 531.964 166.233 532.964 166.6C533.964 166.933 535.014 167.267 536.114 167.6C537.314 167.967 538.497 168.417 539.664 168.95C540.83 169.45 541.88 170.083 542.814 170.85C543.747 171.583 544.497 172.517 545.064 173.65C545.63 174.783 545.914 176.183 545.914 177.85C545.914 179.517 545.58 180.983 544.914 182.25C544.28 183.517 543.397 184.583 542.264 185.45C541.13 186.283 539.83 186.917 538.364 187.35C536.93 187.783 535.414 188 533.814 188Z" fill="#FCF2D1"/>
<path d="M18.976 126.152C15.904 126.152 13.6853 125.683 12.32 124.744C11.04 123.805 10.2293 122.611 9.888 121.16C9.54667 119.624 9.376 118.003 9.376 116.296V46.28C9.376 44.6587 9.54667 43.1653 9.888 41.8C10.2293 40.3493 11.0827 39.1547 12.448 38.216C13.8133 37.2773 16.0747 36.808 19.232 36.808C21.3653 36.808 22.9867 36.936 24.096 37.192C25.2053 37.448 26.016 37.832 26.528 38.344C27.04 38.7707 27.5947 39.2827 28.192 39.88L56.992 78.792H55.072L84 39.88C84.6827 39.0267 85.3653 38.3867 86.048 37.96C86.7307 37.5333 87.584 37.2347 88.608 37.064C89.7173 36.8933 91.2533 36.808 93.216 36.808C96.288 36.808 98.5067 37.2773 99.872 38.216C101.237 39.1547 102.091 40.392 102.432 41.928C102.773 43.3787 102.944 44.9147 102.944 46.536V116.552C102.944 118.173 102.773 119.709 102.432 121.16C102.091 122.611 101.237 123.805 99.872 124.744C98.5067 125.683 96.2453 126.152 93.088 126.152C90.016 126.152 87.7973 125.683 86.432 124.744C85.0667 123.805 84.2133 122.568 83.872 121.032C83.5307 119.496 83.36 117.917 83.36 116.296V70.6L64.288 97.608C63.9467 98.0347 63.4773 98.632 62.88 99.4C62.2827 100.083 61.4293 100.68 60.32 101.192C59.296 101.704 57.888 101.96 56.096 101.96C54.2187 101.96 52.7253 101.704 51.616 101.192C50.592 100.68 49.7813 100.083 49.184 99.4C48.5867 98.7173 48.0747 98.12 47.648 97.608L28.704 70.728V116.552C28.704 118.173 28.5333 119.709 28.192 121.16C27.8507 122.611 26.9973 123.805 25.632 124.744C24.352 125.683 22.1333 126.152 18.976 126.152ZM155.226 127.432C149.082 127.432 143.279 126.28 137.818 123.976C132.442 121.587 127.706 118.344 123.61 114.248C119.599 110.067 116.399 105.245 114.01 99.784C111.706 94.3227 110.554 88.4347 110.554 82.12C110.554 75.72 111.663 69.7467 113.882 64.2C116.186 58.568 119.301 53.6187 123.226 49.352C127.237 45.0853 131.887 41.7573 137.178 39.368C142.469 36.9787 148.143 35.784 154.202 35.784C160.346 35.784 166.106 36.9787 171.482 39.368C176.943 41.672 181.679 44.9147 185.69 49.096C189.701 53.2773 192.858 58.1413 195.162 63.688C197.551 69.2347 198.746 75.2507 198.746 81.736C198.746 87.9653 197.594 93.8533 195.29 99.4C193.071 104.861 189.957 109.725 185.946 113.992C181.935 118.173 177.285 121.459 171.994 123.848C166.789 126.237 161.199 127.432 155.226 127.432ZM154.586 107.976C157.999 107.976 161.199 107.293 164.186 105.928C167.173 104.563 169.775 102.728 171.994 100.424C174.298 98.0347 176.047 95.2613 177.242 92.104C178.522 88.8613 179.162 85.3627 179.162 81.608C179.162 78.024 178.522 74.6533 177.242 71.496C175.962 68.2533 174.17 65.4373 171.866 63.048C169.647 60.5733 167.045 58.6533 164.058 57.288C161.157 55.9227 157.999 55.24 154.586 55.24C151.258 55.24 148.101 55.9227 145.114 57.288C142.213 58.6533 139.61 60.5733 137.306 63.048C135.087 65.4373 133.295 68.2533 131.93 71.496C130.65 74.6533 130.01 78.0667 130.01 81.736C130.01 85.32 130.65 88.7333 131.93 91.976C133.295 95.1333 135.087 97.9067 137.306 100.296C139.61 102.685 142.213 104.563 145.114 105.928C148.015 107.293 151.173 107.976 154.586 107.976ZM250.92 127.176C244.605 127.176 238.76 125.981 233.384 123.592C228.008 121.203 223.272 117.875 219.176 113.608C215.165 109.341 212.008 104.349 209.704 98.632C207.485 92.9147 206.376 86.728 206.376 80.072C206.376 73.7573 207.528 67.912 209.832 62.536C212.136 57.0747 215.336 52.3387 219.432 48.328C223.528 44.232 228.349 41.0747 233.896 38.856C239.443 36.552 245.459 35.3573 251.944 35.272C254.589 35.272 257.405 35.528 260.392 36.04C263.464 36.552 266.451 37.32 269.352 38.344C272.253 39.368 274.771 40.6053 276.904 42.056C278.611 43.1653 280.104 44.36 281.384 45.64C282.749 46.8347 283.432 48.2853 283.432 49.992C283.517 50.8453 283.347 51.8267 282.92 52.936C282.493 53.96 281.896 55.0267 281.128 56.136C279.763 58.0987 278.397 59.5067 277.032 60.36C275.752 61.2133 274.472 61.64 273.192 61.64C272.509 61.64 271.699 61.4267 270.76 61C269.821 60.5733 268.541 59.848 266.92 58.824C266.152 58.312 264.957 57.7573 263.336 57.16C261.715 56.5627 259.837 56.0507 257.704 55.624C255.656 55.112 253.523 54.856 251.304 54.856C246.44 54.856 242.088 55.9653 238.248 58.184C234.408 60.3173 231.379 63.304 229.16 67.144C227.027 70.984 225.917 75.4213 225.832 80.456C225.917 85.576 227.069 90.184 229.288 94.28C231.507 98.2907 234.536 101.491 238.376 103.88C242.301 106.269 246.653 107.464 251.432 107.464C253.139 107.464 254.845 107.379 256.552 107.208C258.344 107.037 260.051 106.781 261.672 106.44C263.379 106.013 264.915 105.501 266.28 104.904V89.288H252.584C251.133 89.288 249.811 89.16 248.616 88.904C247.507 88.648 246.568 87.9227 245.8 86.728C245.117 85.5333 244.776 83.5707 244.776 80.84C244.776 78.1093 245.16 76.1893 245.928 75.08C246.696 73.8853 247.677 73.16 248.872 72.904C250.152 72.648 251.475 72.52 252.84 72.52H277.032C279.848 72.6053 281.853 73.1173 283.048 74.056C284.243 74.9947 285.011 76.1893 285.352 77.64C285.693 79.0053 285.864 80.4987 285.864 82.12V110.024C285.864 112.072 284.925 114.205 283.048 116.424C281.171 118.557 278.611 120.435 275.368 122.056C273.32 123.165 270.973 124.104 268.328 124.872C265.768 125.555 263.037 126.109 260.136 126.536C257.235 126.963 254.163 127.176 250.92 127.176ZM308.372 126.152C305.3 126.152 303.081 125.683 301.716 124.744C300.351 123.805 299.497 122.568 299.156 121.032C298.9 119.496 298.772 117.917 298.772 116.296V46.28C298.772 44.6587 298.9 43.1227 299.156 41.672C299.497 40.2213 300.351 39.0267 301.716 38.088C303.081 37.1493 305.343 36.68 308.5 36.68H335.124C338.623 36.68 342.207 37.32 345.876 38.6C349.545 39.88 352.916 41.8427 355.988 44.488C359.06 47.1333 361.535 50.4187 363.412 54.344C365.289 58.2693 366.228 62.92 366.228 68.296C366.228 71.88 365.673 75.336 364.564 78.664C363.54 81.992 361.961 85.064 359.828 87.88C357.695 90.696 355.049 93.128 351.892 95.176C348.735 97.1387 345.108 98.5467 341.012 99.4H318.228V116.424C318.228 118.045 318.057 119.624 317.716 121.16C317.375 122.611 316.521 123.805 315.156 124.744C313.791 125.683 311.529 126.152 308.372 126.152ZM362.388 123.592C359.231 125.896 356.713 126.792 354.836 126.28C352.959 125.768 350.996 124.104 348.948 121.288L326.42 89.032L348.308 86.216L364.82 109.896C366.271 111.944 367.167 113.693 367.508 115.144C367.935 116.595 367.721 117.96 366.868 119.24C366.1 120.52 364.607 121.971 362.388 123.592ZM318.228 80.2H336.02C337.215 80.2 338.452 79.9867 339.732 79.56C341.012 79.048 342.164 78.3227 343.188 77.384C344.212 76.4453 345.065 75.208 345.748 73.672C346.431 72.136 346.772 70.3013 346.772 68.168C346.772 65.6933 346.26 63.56 345.236 61.768C344.297 59.976 342.932 58.6107 341.14 57.672C339.348 56.648 337.257 56.136 334.868 56.136H318.228V80.2ZM455.939 112.584C456.963 114.717 457.518 116.552 457.603 118.088C457.688 119.539 457.219 120.861 456.195 122.056C455.256 123.165 453.678 124.275 451.459 125.384C448.046 127.005 445.4 127.475 443.523 126.792C441.646 126.195 439.896 124.189 438.275 120.776L413.187 68.296L388.227 120.776C386.52 124.104 384.728 126.067 382.851 126.664C381.059 127.347 378.456 126.877 375.043 125.256C372.824 124.232 371.203 123.165 370.179 122.056C369.24 120.861 368.814 119.496 368.899 117.96C368.984 116.339 369.582 114.461 370.691 112.328L404.355 42.312C405.208 40.6053 406.446 39.24 408.067 38.216C409.774 37.192 411.523 36.68 413.315 36.68C414.595 36.68 415.79 36.936 416.899 37.448C418.008 37.8747 418.99 38.5147 419.843 39.368C420.782 40.2213 421.55 41.2453 422.147 42.44L455.939 112.584ZM391.683 105.288L399.619 88.776H426.883L434.819 105.288H391.683ZM473.345 126.152C470.358 126.152 468.182 125.683 466.817 124.744C465.452 123.805 464.598 122.611 464.257 121.16C463.916 119.624 463.745 118.003 463.745 116.296V46.024C463.745 44.4027 463.916 42.9093 464.257 41.544C464.598 40.1787 465.452 39.0693 466.817 38.216C468.268 37.2773 470.572 36.808 473.729 36.808C476.801 36.808 478.934 37.192 480.129 37.96C481.324 38.6427 482.39 39.624 483.329 40.904L520.705 92.232V46.024C520.705 44.4027 520.876 42.9093 521.217 41.544C521.644 40.1787 522.54 39.0693 523.905 38.216C525.27 37.2773 527.489 36.808 530.561 36.808C533.718 36.808 535.937 37.2773 537.217 38.216C538.582 39.1547 539.393 40.392 539.649 41.928C539.99 43.3787 540.161 44.9147 540.161 46.536V116.424C540.161 118.045 539.99 119.624 539.649 121.16C539.308 122.611 538.454 123.805 537.089 124.744C535.724 125.683 533.462 126.152 530.305 126.152C527.916 126.152 526.038 125.939 524.673 125.512C523.393 125.085 522.284 124.275 521.345 123.08L483.201 71.368V116.424C483.201 118.045 483.03 119.624 482.689 121.16C482.348 122.611 481.494 123.805 480.129 124.744C478.764 125.683 476.502 126.152 473.345 126.152Z" fill="#F81443"/>
</svg>
