<svg width="599" height="202" viewBox="0 0 599 202" fill="none" xmlns="http://www.w3.org/2000/svg">
<path d="M31.111 153.536C31.5703 153.536 31.9413 153.589 32.224 153.695C32.542 153.801 32.7893 154.013 32.966 154.331C33.1427 154.614 33.231 155.091 33.231 155.762C33.231 156.398 33.125 156.875 32.913 157.193C32.7363 157.511 32.489 157.723 32.171 157.829C31.853 157.9 31.4643 157.935 31.005 157.935H20.034V188.198C20.034 188.657 19.9633 189.064 19.822 189.417C19.716 189.77 19.4863 190.035 19.133 190.212C18.815 190.424 18.3203 190.53 17.649 190.53C16.9423 190.53 16.4123 190.424 16.059 190.212C15.741 190.035 15.529 189.77 15.423 189.417C15.3523 189.028 15.317 188.604 15.317 188.145V157.935H4.187C3.72767 157.935 3.339 157.9 3.021 157.829C2.703 157.723 2.45567 157.511 2.279 157.193C2.10233 156.875 2.014 156.398 2.014 155.762C2.014 155.091 2.08467 154.614 2.226 154.331C2.40267 154.013 2.65 153.801 2.968 153.695C3.32133 153.589 3.71 153.536 4.134 153.536H31.111ZM63.0095 187.138C63.2922 187.668 63.4335 188.127 63.4335 188.516C63.4689 188.869 63.3629 189.205 63.1156 189.523C62.8682 189.806 62.4795 190.071 61.9495 190.318C61.1015 190.707 60.4302 190.795 59.9355 190.583C59.4762 190.371 59.0522 189.859 58.6635 189.046L45.4135 160.85L32.2695 188.993C31.8809 189.806 31.4392 190.318 30.9445 190.53C30.4852 190.742 29.8139 190.654 28.9305 190.265C28.4005 190.053 28.0119 189.788 27.7645 189.47C27.5525 189.152 27.4642 188.763 27.4995 188.304C27.5702 187.845 27.7469 187.315 28.0295 186.714L43.2405 154.967C43.4525 154.543 43.7529 154.207 44.1415 153.96C44.5655 153.677 45.0072 153.536 45.4665 153.536C45.7845 153.536 46.0849 153.589 46.3675 153.695C46.6502 153.801 46.8975 153.96 47.1095 154.172C47.3215 154.384 47.4982 154.667 47.6395 155.02L63.0095 187.138ZM35.4495 179.983L37.2515 175.902H53.6815L55.4305 179.983H35.4495ZM70.0639 190.53C69.3573 190.53 68.8273 190.424 68.4739 190.212C68.1206 190.035 67.8733 189.77 67.7319 189.417C67.6259 189.064 67.5729 188.64 67.5729 188.145V155.974C67.5729 155.444 67.6259 155.002 67.7319 154.649C67.8379 154.296 68.0499 154.031 68.3679 153.854C68.7213 153.642 69.2513 153.536 69.9579 153.536C70.6646 153.536 71.1769 153.642 71.4949 153.854C71.8483 154.031 72.0779 154.296 72.1839 154.649C72.2899 155.002 72.3429 155.426 72.3429 155.921V186.078H90.0979C90.5573 186.078 90.9459 186.131 91.2639 186.237C91.5819 186.343 91.8293 186.555 92.0059 186.873C92.2179 187.191 92.3239 187.668 92.3239 188.304C92.3239 188.905 92.2356 189.382 92.0589 189.735C91.8823 190.053 91.6349 190.265 91.3169 190.371C90.9989 190.477 90.6103 190.53 90.1509 190.53H70.0639ZM99.6176 190.53C98.911 190.53 98.381 190.424 98.0276 190.212C97.6743 190.035 97.427 189.77 97.2856 189.417C97.1796 189.064 97.1266 188.64 97.1266 188.145V155.974C97.1266 155.444 97.1796 155.002 97.2856 154.649C97.3916 154.296 97.6036 154.031 97.9216 153.854C98.275 153.642 98.805 153.536 99.5116 153.536C100.218 153.536 100.731 153.642 101.049 153.854C101.402 154.031 101.632 154.296 101.738 154.649C101.844 155.002 101.897 155.426 101.897 155.921V186.078H119.652C120.111 186.078 120.5 186.131 120.818 186.237C121.136 186.343 121.383 186.555 121.56 186.873C121.772 187.191 121.878 187.668 121.878 188.304C121.878 188.905 121.789 189.382 121.613 189.735C121.436 190.053 121.189 190.265 120.871 190.371C120.553 190.477 120.164 190.53 119.705 190.53H99.6176ZM129.648 190.53C128.942 190.53 128.412 190.424 128.058 190.212C127.74 190.035 127.528 189.77 127.422 189.417C127.316 189.028 127.263 188.587 127.263 188.092V155.921C127.263 155.002 127.44 154.384 127.793 154.066C128.182 153.713 128.853 153.536 129.807 153.536H151.113C151.608 153.536 152.032 153.589 152.385 153.695C152.739 153.801 153.004 154.031 153.18 154.384C153.357 154.737 153.445 155.267 153.445 155.974C153.445 156.681 153.339 157.211 153.127 157.564C152.951 157.882 152.686 158.094 152.332 158.2C151.979 158.306 151.555 158.359 151.06 158.359H132.033V169.33H145.283C145.778 169.33 146.184 169.383 146.502 169.489C146.856 169.595 147.121 169.807 147.297 170.125C147.474 170.443 147.562 170.938 147.562 171.609C147.562 172.245 147.474 172.722 147.297 173.04C147.121 173.358 146.856 173.57 146.502 173.676C146.149 173.747 145.707 173.782 145.177 173.782H132.033V185.76H151.113C151.608 185.76 152.032 185.813 152.385 185.919C152.739 186.025 153.004 186.255 153.18 186.608C153.357 186.926 153.445 187.438 153.445 188.145C153.445 188.852 153.339 189.382 153.127 189.735C152.951 190.053 152.686 190.265 152.332 190.371C151.979 190.477 151.555 190.53 151.06 190.53H129.648ZM162.617 190.53C161.946 190.53 161.433 190.424 161.08 190.212C160.727 190.035 160.497 189.77 160.391 189.417C160.32 189.028 160.285 188.587 160.285 188.092V155.868C160.285 155.409 160.338 155.02 160.444 154.702C160.585 154.349 160.815 154.066 161.133 153.854C161.486 153.642 161.999 153.536 162.67 153.536H174.383C176.114 153.536 177.687 153.801 179.1 154.331C180.549 154.826 181.803 155.568 182.863 156.557C183.923 157.546 184.736 158.801 185.301 160.32C185.902 161.804 186.202 163.535 186.202 165.514C186.202 166.751 186.008 168.04 185.619 169.383C185.23 170.69 184.63 171.927 183.817 173.093C183.04 174.259 182.033 175.231 180.796 176.008C179.559 176.785 178.058 177.227 176.291 177.333H165.055V188.145C165.055 188.64 164.984 189.064 164.843 189.417C164.737 189.77 164.507 190.035 164.154 190.212C163.836 190.424 163.324 190.53 162.617 190.53ZM185.354 189.947C184.612 190.442 183.976 190.601 183.446 190.424C182.951 190.247 182.474 189.823 182.015 189.152L173.535 175.584L178.782 174.789L186.096 186.449C186.449 187.014 186.661 187.491 186.732 187.88C186.838 188.269 186.767 188.622 186.52 188.94C186.308 189.258 185.919 189.594 185.354 189.947ZM165.055 172.669H175.549C176.362 172.669 177.121 172.528 177.828 172.245C178.535 171.927 179.153 171.468 179.683 170.867C180.213 170.266 180.637 169.524 180.955 168.641C181.273 167.758 181.432 166.698 181.432 165.461C181.432 163.942 181.149 162.652 180.584 161.592C180.054 160.532 179.259 159.737 178.199 159.207C177.139 158.642 175.832 158.359 174.277 158.359H165.055V172.669ZM195.743 190.53C195.036 190.53 194.506 190.424 194.153 190.212C193.835 190.035 193.623 189.77 193.517 189.417C193.411 189.028 193.358 188.587 193.358 188.092V155.921C193.358 155.002 193.535 154.384 193.888 154.066C194.277 153.713 194.948 153.536 195.902 153.536H217.208C217.703 153.536 218.127 153.589 218.48 153.695C218.833 153.801 219.098 154.031 219.275 154.384C219.452 154.737 219.54 155.267 219.54 155.974C219.54 156.681 219.434 157.211 219.222 157.564C219.045 157.882 218.78 158.094 218.427 158.2C218.074 158.306 217.65 158.359 217.155 158.359H198.128V169.33H211.378C211.873 169.33 212.279 169.383 212.597 169.489C212.95 169.595 213.215 169.807 213.392 170.125C213.569 170.443 213.657 170.938 213.657 171.609C213.657 172.245 213.569 172.722 213.392 173.04C213.215 173.358 212.95 173.57 212.597 173.676C212.244 173.747 211.802 173.782 211.272 173.782H198.128V185.76H217.208C217.703 185.76 218.127 185.813 218.48 185.919C218.833 186.025 219.098 186.255 219.275 186.608C219.452 186.926 219.54 187.438 219.54 188.145C219.54 188.852 219.434 189.382 219.222 189.735C219.045 190.053 218.78 190.265 218.427 190.371C218.074 190.477 217.65 190.53 217.155 190.53H195.743ZM236.715 191.06C235.372 191.06 234.1 190.901 232.899 190.583C231.733 190.265 230.655 189.841 229.666 189.311C228.712 188.746 227.864 188.127 227.122 187.456C226.38 186.785 225.797 186.113 225.373 185.442C224.984 184.877 224.737 184.417 224.631 184.064C224.525 183.675 224.542 183.304 224.684 182.951C224.86 182.598 225.196 182.209 225.691 181.785C226.256 181.361 226.751 181.167 227.175 181.202C227.599 181.202 227.987 181.361 228.341 181.679C228.729 181.997 229.118 182.421 229.507 182.951C230.39 184.152 231.468 185.036 232.74 185.601C234.012 186.131 235.266 186.396 236.503 186.396C238.093 186.396 239.506 186.184 240.743 185.76C241.979 185.336 242.951 184.7 243.658 183.852C244.4 182.969 244.771 181.838 244.771 180.46C244.771 179.329 244.488 178.375 243.923 177.598C243.357 176.821 242.598 176.167 241.644 175.637C240.69 175.072 239.63 174.595 238.464 174.206C237.298 173.782 236.114 173.376 234.913 172.987C233.959 172.669 233.022 172.316 232.104 171.927C231.185 171.503 230.319 171.044 229.507 170.549C228.694 170.019 227.97 169.401 227.334 168.694C226.733 167.987 226.256 167.157 225.903 166.203C225.585 165.249 225.426 164.136 225.426 162.864C225.426 160.921 225.885 159.207 226.804 157.723C227.758 156.239 229.083 155.091 230.779 154.278C232.475 153.43 234.436 153.006 236.662 153.006C237.969 153.006 239.17 153.13 240.266 153.377C241.361 153.624 242.333 153.96 243.181 154.384C244.029 154.773 244.753 155.197 245.354 155.656C245.954 156.08 246.414 156.486 246.732 156.875C247.368 157.546 247.721 158.112 247.792 158.571C247.862 159.03 247.597 159.596 246.997 160.267C246.431 160.903 245.884 161.239 245.354 161.274C244.824 161.309 244.241 161.062 243.605 160.532C242.933 159.755 242.227 159.154 241.485 158.73C240.778 158.306 240.018 158.023 239.206 157.882C238.428 157.705 237.563 157.617 236.609 157.617C235.69 157.617 234.824 157.741 234.012 157.988C233.234 158.2 232.545 158.536 231.945 158.995C231.379 159.454 230.938 160.02 230.62 160.691C230.302 161.327 230.143 162.069 230.143 162.917C230.143 163.871 230.39 164.684 230.885 165.355C231.415 166.026 232.104 166.609 232.952 167.104C233.8 167.563 234.754 167.987 235.814 168.376C236.874 168.729 237.987 169.083 239.153 169.436C240.425 169.825 241.679 170.302 242.916 170.867C244.152 171.397 245.265 172.068 246.255 172.881C247.244 173.658 248.039 174.648 248.64 175.849C249.24 177.05 249.541 178.534 249.541 180.301C249.541 182.068 249.187 183.622 248.481 184.965C247.809 186.308 246.873 187.438 245.672 188.357C244.47 189.24 243.092 189.912 241.538 190.371C240.018 190.83 238.411 191.06 236.715 191.06ZM278.299 190.636C275.897 190.636 273.847 190.265 272.151 189.523C270.455 188.746 269.148 187.615 268.229 186.131C267.346 184.647 266.904 182.863 266.904 180.778C266.904 179.647 267.169 178.517 267.699 177.386C268.229 176.22 268.989 175.054 269.978 173.888C271.003 172.687 272.222 171.521 273.635 170.39C273.141 169.365 272.681 168.341 272.257 167.316C271.869 166.256 271.568 165.231 271.356 164.242C271.144 163.217 271.038 162.246 271.038 161.327C271.038 159.525 271.445 157.97 272.257 156.663C273.07 155.356 274.218 154.349 275.702 153.642C277.186 152.935 278.953 152.582 281.002 152.582C282.769 152.582 284.288 152.918 285.56 153.589C286.868 154.225 287.875 155.126 288.581 156.292C289.288 157.458 289.641 158.854 289.641 160.479C289.641 161.256 289.394 162.087 288.899 162.97C288.405 163.818 287.698 164.719 286.779 165.673C285.861 166.592 284.801 167.563 283.599 168.588C282.398 169.577 281.091 170.62 279.677 171.715C280.631 173.128 281.603 174.471 282.592 175.743C283.617 176.98 284.659 178.11 285.719 179.135C286.815 180.124 287.857 180.972 288.846 181.679C290.224 180.548 291.178 179.506 291.708 178.552C292.238 177.563 292.609 176.573 292.821 175.584C292.927 175.16 293.175 174.807 293.563 174.524C293.952 174.206 294.606 174.047 295.524 174.047C296.125 174.047 296.567 174.153 296.849 174.365C297.167 174.542 297.379 174.789 297.485 175.107C297.627 175.39 297.68 175.672 297.644 175.955C297.574 177.298 297.097 178.64 296.213 179.983C295.365 181.326 294.182 182.686 292.662 184.064C293.228 184.241 293.722 184.4 294.146 184.541C294.606 184.682 295.118 184.788 295.683 184.859C296.249 184.894 296.973 184.912 297.856 184.912C298.669 184.912 299.234 185.089 299.552 185.442C299.906 185.76 300.082 186.343 300.082 187.191C300.082 188.216 299.923 188.905 299.605 189.258C299.287 189.611 298.687 189.788 297.803 189.788C296.814 189.788 295.789 189.717 294.729 189.576C293.705 189.435 292.68 189.187 291.655 188.834C290.631 188.481 289.571 188.004 288.475 187.403C287.521 188.074 286.479 188.657 285.348 189.152C284.218 189.647 283.052 190.018 281.85 190.265C280.684 190.512 279.501 190.636 278.299 190.636ZM278.299 186.131C279.501 186.131 280.649 185.972 281.744 185.654C282.84 185.336 283.758 184.93 284.5 184.435C283.9 183.87 283.228 183.234 282.486 182.527C281.744 181.785 281.002 180.99 280.26 180.142C279.518 179.294 278.776 178.393 278.034 177.439C277.292 176.485 276.586 175.513 275.914 174.524C275.172 175.231 274.536 175.867 274.006 176.432C273.476 176.962 273.052 177.457 272.734 177.916C272.416 178.34 272.187 178.799 272.045 179.294C271.904 179.753 271.833 180.248 271.833 180.778C271.833 181.873 272.098 182.827 272.628 183.64C273.158 184.453 273.9 185.071 274.854 185.495C275.844 185.919 276.992 186.131 278.299 186.131ZM277.504 167.952C278.67 167.069 279.713 166.274 280.631 165.567C281.585 164.825 282.38 164.136 283.016 163.5C283.652 162.864 284.147 162.281 284.5 161.751C284.854 161.221 285.03 160.762 285.03 160.373C285.03 159.207 284.659 158.271 283.917 157.564C283.175 156.822 282.186 156.451 280.949 156.451C279.854 156.451 278.9 156.645 278.087 157.034C277.275 157.387 276.639 157.9 276.179 158.571C275.755 159.242 275.543 160.055 275.543 161.009C275.543 161.61 275.614 162.246 275.755 162.917C275.897 163.553 276.109 164.277 276.391 165.09C276.674 165.903 277.045 166.857 277.504 167.952ZM347.507 153.536C347.966 153.536 348.337 153.589 348.62 153.695C348.938 153.801 349.185 154.013 349.362 154.331C349.538 154.614 349.627 155.091 349.627 155.762C349.627 156.398 349.521 156.875 349.309 157.193C349.132 157.511 348.885 157.723 348.567 157.829C348.249 157.9 347.86 157.935 347.401 157.935H336.43V188.198C336.43 188.657 336.359 189.064 336.218 189.417C336.112 189.77 335.882 190.035 335.529 190.212C335.211 190.424 334.716 190.53 334.045 190.53C333.338 190.53 332.808 190.424 332.455 190.212C332.137 190.035 331.925 189.77 331.819 189.417C331.748 189.028 331.713 188.604 331.713 188.145V157.935H320.583C320.123 157.935 319.735 157.9 319.417 157.829C319.099 157.723 318.851 157.511 318.675 157.193C318.498 156.875 318.41 156.398 318.41 155.762C318.41 155.091 318.48 154.614 318.622 154.331C318.798 154.013 319.046 153.801 319.364 153.695C319.717 153.589 320.106 153.536 320.53 153.536H347.507ZM379.405 187.138C379.688 187.668 379.829 188.127 379.829 188.516C379.864 188.869 379.758 189.205 379.511 189.523C379.264 189.806 378.875 190.071 378.345 190.318C377.497 190.707 376.826 190.795 376.331 190.583C375.872 190.371 375.448 189.859 375.059 189.046L361.809 160.85L348.665 188.993C348.276 189.806 347.835 190.318 347.34 190.53C346.881 190.742 346.209 190.654 345.326 190.265C344.796 190.053 344.407 189.788 344.16 189.47C343.948 189.152 343.86 188.763 343.895 188.304C343.966 187.845 344.142 187.315 344.425 186.714L359.636 154.967C359.848 154.543 360.148 154.207 360.537 153.96C360.961 153.677 361.403 153.536 361.862 153.536C362.18 153.536 362.48 153.589 362.763 153.695C363.046 153.801 363.293 153.96 363.505 154.172C363.717 154.384 363.894 154.667 364.035 155.02L379.405 187.138ZM351.845 179.983L353.647 175.902H370.077L371.826 179.983H351.845ZM386.459 190.53C385.753 190.53 385.223 190.424 384.869 190.212C384.516 190.035 384.269 189.77 384.127 189.417C384.021 189.064 383.968 188.64 383.968 188.145V155.974C383.968 155.444 384.021 155.002 384.127 154.649C384.233 154.296 384.445 154.031 384.763 153.854C385.117 153.642 385.647 153.536 386.353 153.536C387.06 153.536 387.572 153.642 387.89 153.854C388.244 154.031 388.473 154.296 388.579 154.649C388.685 155.002 388.738 155.426 388.738 155.921V186.078H406.493C406.953 186.078 407.341 186.131 407.659 186.237C407.977 186.343 408.225 186.555 408.401 186.873C408.613 187.191 408.719 187.668 408.719 188.304C408.719 188.905 408.631 189.382 408.454 189.735C408.278 190.053 408.03 190.265 407.712 190.371C407.394 190.477 407.006 190.53 406.546 190.53H386.459ZM416.49 190.53C415.783 190.53 415.253 190.424 414.9 190.212C414.582 190.035 414.37 189.77 414.264 189.417C414.158 189.028 414.105 188.587 414.105 188.092V155.921C414.105 155.002 414.282 154.384 414.635 154.066C415.024 153.713 415.695 153.536 416.649 153.536H437.955C438.45 153.536 438.874 153.589 439.227 153.695C439.58 153.801 439.845 154.031 440.022 154.384C440.199 154.737 440.287 155.267 440.287 155.974C440.287 156.681 440.181 157.211 439.969 157.564C439.792 157.882 439.527 158.094 439.174 158.2C438.821 158.306 438.397 158.359 437.902 158.359H418.875V169.33H432.125C432.62 169.33 433.026 169.383 433.344 169.489C433.697 169.595 433.962 169.807 434.139 170.125C434.316 170.443 434.404 170.938 434.404 171.609C434.404 172.245 434.316 172.722 434.139 173.04C433.962 173.358 433.697 173.57 433.344 173.676C432.991 173.747 432.549 173.782 432.019 173.782H418.875V185.76H437.955C438.45 185.76 438.874 185.813 439.227 185.919C439.58 186.025 439.845 186.255 440.022 186.608C440.199 186.926 440.287 187.438 440.287 188.145C440.287 188.852 440.181 189.382 439.969 189.735C439.792 190.053 439.527 190.265 439.174 190.371C438.821 190.477 438.397 190.53 437.902 190.53H416.49ZM448.823 190.53C448.222 190.53 447.745 190.424 447.392 190.212C447.074 190 446.844 189.717 446.703 189.364C446.597 188.975 446.544 188.534 446.544 188.039V155.762C446.544 155.303 446.614 154.914 446.756 154.596C446.897 154.278 447.144 154.031 447.498 153.854C447.886 153.642 448.416 153.536 449.088 153.536C449.865 153.536 450.413 153.607 450.731 153.748C451.049 153.889 451.367 154.137 451.685 154.49L471.613 182.686V155.762C471.613 155.303 471.666 154.914 471.772 154.596C471.913 154.278 472.16 154.031 472.514 153.854C472.867 153.642 473.379 153.536 474.051 153.536C474.687 153.536 475.164 153.642 475.482 153.854C475.835 154.066 476.065 154.366 476.171 154.755C476.312 155.108 476.383 155.515 476.383 155.974V188.092C476.383 188.551 476.294 188.975 476.118 189.364C475.976 189.717 475.711 190 475.323 190.212C474.969 190.424 474.457 190.53 473.786 190.53C473.22 190.53 472.743 190.459 472.355 190.318C472.001 190.177 471.666 189.912 471.348 189.523L451.314 161.539V188.092C451.314 188.551 451.243 188.975 451.102 189.364C450.96 189.717 450.713 190 450.36 190.212C450.006 190.424 449.494 190.53 448.823 190.53ZM511.734 153.536C512.193 153.536 512.564 153.589 512.847 153.695C513.165 153.801 513.412 154.013 513.589 154.331C513.766 154.614 513.854 155.091 513.854 155.762C513.854 156.398 513.748 156.875 513.536 157.193C513.359 157.511 513.112 157.723 512.794 157.829C512.476 157.9 512.087 157.935 511.628 157.935H500.657V188.198C500.657 188.657 500.586 189.064 500.445 189.417C500.339 189.77 500.109 190.035 499.756 190.212C499.438 190.424 498.943 190.53 498.272 190.53C497.565 190.53 497.035 190.424 496.682 190.212C496.364 190.035 496.152 189.77 496.046 189.417C495.975 189.028 495.94 188.604 495.94 188.145V157.935H484.81C484.351 157.935 483.962 157.9 483.644 157.829C483.326 157.723 483.079 157.511 482.902 157.193C482.725 156.875 482.637 156.398 482.637 155.762C482.637 155.091 482.708 154.614 482.849 154.331C483.026 154.013 483.273 153.801 483.591 153.695C483.944 153.589 484.333 153.536 484.757 153.536H511.734ZM532.324 190.901C529.815 190.901 527.448 190.424 525.222 189.47C523.031 188.516 521.088 187.191 519.392 185.495C517.731 183.764 516.424 181.785 515.47 179.559C514.516 177.333 514.039 174.93 514.039 172.351C514.039 169.736 514.498 167.281 515.417 164.984C516.336 162.652 517.608 160.62 519.233 158.889C520.894 157.158 522.802 155.797 524.957 154.808C527.112 153.819 529.409 153.324 531.847 153.324C534.391 153.324 536.758 153.801 538.949 154.755C541.175 155.709 543.101 157.052 544.726 158.783C546.387 160.479 547.694 162.475 548.648 164.772C549.602 167.069 550.079 169.524 550.079 172.139C550.079 174.718 549.602 177.139 548.648 179.4C547.729 181.626 546.457 183.622 544.832 185.389C543.207 187.12 541.316 188.481 539.161 189.47C537.041 190.424 534.762 190.901 532.324 190.901ZM532.006 186.078C533.843 186.078 535.557 185.725 537.147 185.018C538.772 184.311 540.186 183.322 541.387 182.05C542.588 180.743 543.525 179.259 544.196 177.598C544.903 175.902 545.256 174.065 545.256 172.086C545.256 170.178 544.903 168.394 544.196 166.733C543.525 165.037 542.571 163.553 541.334 162.281C540.133 160.974 538.737 159.949 537.147 159.207C535.557 158.465 533.861 158.094 532.059 158.094C530.257 158.094 528.561 158.465 526.971 159.207C525.381 159.949 523.968 160.956 522.731 162.228C521.53 163.5 520.576 164.984 519.869 166.68C519.198 168.376 518.862 170.196 518.862 172.139C518.862 174.047 519.198 175.849 519.869 177.545C520.576 179.241 521.53 180.725 522.731 181.997C523.968 183.269 525.363 184.276 526.918 185.018C528.508 185.725 530.204 186.078 532.006 186.078ZM565.842 191.06C564.5 191.06 563.228 190.901 562.026 190.583C560.86 190.265 559.783 189.841 558.793 189.311C557.839 188.746 556.991 188.127 556.249 187.456C555.507 186.785 554.924 186.113 554.5 185.442C554.112 184.877 553.864 184.417 553.758 184.064C553.652 183.675 553.67 183.304 553.811 182.951C553.988 182.598 554.324 182.209 554.818 181.785C555.384 181.361 555.878 181.167 556.302 181.202C556.726 181.202 557.115 181.361 557.468 181.679C557.857 181.997 558.246 182.421 558.634 182.951C559.518 184.152 560.595 185.036 561.867 185.601C563.139 186.131 564.394 186.396 565.63 186.396C567.22 186.396 568.634 186.184 569.87 185.76C571.107 185.336 572.079 184.7 572.785 183.852C573.527 182.969 573.898 181.838 573.898 180.46C573.898 179.329 573.616 178.375 573.05 177.598C572.485 176.821 571.725 176.167 570.771 175.637C569.817 175.072 568.757 174.595 567.591 174.206C566.425 173.782 565.242 173.376 564.04 172.987C563.086 172.669 562.15 172.316 561.231 171.927C560.313 171.503 559.447 171.044 558.634 170.549C557.822 170.019 557.097 169.401 556.461 168.694C555.861 167.987 555.384 167.157 555.03 166.203C554.712 165.249 554.553 164.136 554.553 162.864C554.553 160.921 555.013 159.207 555.931 157.723C556.885 156.239 558.21 155.091 559.906 154.278C561.602 153.43 563.563 153.006 565.789 153.006C567.097 153.006 568.298 153.13 569.393 153.377C570.489 153.624 571.46 153.96 572.308 154.384C573.156 154.773 573.881 155.197 574.481 155.656C575.082 156.08 575.541 156.486 575.859 156.875C576.495 157.546 576.849 158.112 576.919 158.571C576.99 159.03 576.725 159.596 576.124 160.267C575.559 160.903 575.011 161.239 574.481 161.274C573.951 161.309 573.368 161.062 572.732 160.532C572.061 159.755 571.354 159.154 570.612 158.73C569.906 158.306 569.146 158.023 568.333 157.882C567.556 157.705 566.69 157.617 565.736 157.617C564.818 157.617 563.952 157.741 563.139 157.988C562.362 158.2 561.673 158.536 561.072 158.995C560.507 159.454 560.065 160.02 559.747 160.691C559.429 161.327 559.27 162.069 559.27 162.917C559.27 163.871 559.518 164.684 560.012 165.355C560.542 166.026 561.231 166.609 562.079 167.104C562.927 167.563 563.881 167.987 564.941 168.376C566.001 168.729 567.114 169.083 568.28 169.436C569.552 169.825 570.807 170.302 572.043 170.867C573.28 171.397 574.393 172.068 575.382 172.881C576.372 173.658 577.167 174.648 577.767 175.849C578.368 177.05 578.668 178.534 578.668 180.301C578.668 182.068 578.315 183.622 577.608 184.965C576.937 186.308 576.001 187.438 574.799 188.357C573.598 189.24 572.22 189.912 570.665 190.371C569.146 190.83 567.538 191.06 565.842 191.06Z" fill="#F8F3E6"/>
<path d="M108.832 34.76C109.515 36.04 109.899 37.192 109.984 38.216C110.155 39.24 110.24 40.7333 110.24 42.696V113.736C110.24 119.624 108.619 123.08 105.376 124.104C103.755 124.616 101.707 124.872 99.232 124.872C96.7573 124.872 94.7947 124.659 93.344 124.232C91.8933 123.805 90.784 123.293 90.016 122.696C89.248 122.099 88.6507 121.245 88.224 120.136C87.7973 118.685 87.584 116.467 87.584 113.48V70.6C85.4507 73.2453 82.336 77.4693 78.24 83.272C74.144 88.9893 71.5413 92.5733 70.432 94.024C69.3227 95.4747 68.5547 96.4987 68.128 97.096C67.7013 97.608 66.6347 98.376 64.928 99.4C63.3067 100.339 61.5147 100.808 59.552 100.808C57.6747 100.808 55.9253 100.381 54.304 99.528C52.768 98.5893 51.6587 97.6933 50.976 96.84L49.952 95.432C48.2453 93.2987 44.8747 88.776 39.84 81.864C34.8053 74.8667 32.0747 71.112 31.648 70.6V113.736C31.648 115.699 31.5627 117.192 31.392 118.216C31.3067 119.155 30.9227 120.221 30.24 121.416C28.96 123.72 25.632 124.872 20.256 124.872C15.0507 124.872 11.808 123.72 10.528 121.416C9.84533 120.221 9.41867 119.112 9.248 118.088C9.16267 117.064 9.12 115.528 9.12 113.48V42.44C9.12 40.4773 9.16267 39.0267 9.248 38.088C9.41867 37.064 9.84533 35.912 10.528 34.632C11.808 32.4133 15.136 31.304 20.512 31.304C22.816 31.304 24.7787 31.6027 26.4 32.2C28.1067 32.712 29.216 33.2667 29.728 33.864L30.496 34.632L59.552 72.776C74.0587 53.576 83.744 40.904 88.608 34.76C90.0587 32.456 93.472 31.304 98.848 31.304C104.309 31.304 107.637 32.456 108.832 34.76ZM164.527 30.024C177.156 30.024 188.122 34.5893 197.423 43.72C206.724 52.8507 211.375 64.2 211.375 77.768C211.375 91.2507 206.938 102.771 198.063 112.328C189.188 121.8 178.266 126.536 165.295 126.536C152.324 126.536 141.274 121.843 132.143 112.456C123.098 103.069 118.575 91.8907 118.575 78.92C118.575 71.8373 119.855 65.224 122.415 59.08C124.975 52.8507 128.388 47.6453 132.655 43.464C136.922 39.2827 141.828 35.9973 147.375 33.608C152.922 31.2187 158.639 30.024 164.527 30.024ZM141.231 78.28C141.231 85.8747 143.663 92.0613 148.527 96.84C153.476 101.533 158.98 103.88 165.039 103.88C171.098 103.88 176.559 101.576 181.423 96.968C186.287 92.36 188.719 86.1733 188.719 78.408C188.719 70.6427 186.244 64.4133 181.295 59.72C176.431 55.0267 170.97 52.68 164.911 52.68C158.852 52.68 153.391 55.0693 148.527 59.848C143.663 64.5413 141.231 70.6853 141.231 78.28ZM268.641 68.424H291.169C295.777 68.5947 298.593 69.7893 299.617 72.008C300.47 73.6293 300.897 76.0187 300.897 79.176V107.336C300.897 110.067 299.702 112.669 297.313 115.144C290.145 122.568 279.393 126.28 265.057 126.28C252.342 126.28 241.292 121.501 231.905 111.944C222.518 102.301 217.825 90.696 217.825 77.128C217.825 63.56 222.604 52.2533 232.161 43.208C241.718 34.0773 252.982 29.512 265.953 29.512C276.022 29.512 285.537 32.84 294.497 39.496C296.801 41.2027 297.953 43.1227 297.953 45.256C297.953 47.304 296.972 49.6933 295.009 52.424C291.681 56.9467 288.652 59.208 285.921 59.208C284.3 59.208 281.697 58.056 278.113 55.752C274.529 53.3627 270.262 52.168 265.313 52.168C258.828 52.168 253.068 54.472 248.033 59.08C242.998 63.6027 240.481 69.576 240.481 77C240.481 84.3387 243.041 90.6107 248.161 95.816C253.281 100.936 259.084 103.496 265.569 103.496C270.262 103.496 274.486 102.728 278.241 101.192V87.24H268.129C265.484 87.24 263.606 86.8987 262.497 86.216C261.388 85.5333 260.662 84.552 260.321 83.272C259.98 81.9067 259.809 80.1147 259.809 77.896C259.809 75.592 259.98 73.7573 260.321 72.392C260.748 71.0267 261.473 70.088 262.497 69.576C264.033 68.808 266.081 68.424 268.641 68.424ZM382.928 109.128C384.208 112.2 384.848 114.419 384.848 115.784C384.848 119.027 382.203 121.757 376.912 123.976C374.181 125.171 371.963 125.768 370.256 125.768C368.635 125.768 367.269 125.384 366.16 124.616C365.136 123.763 364.368 122.909 363.856 122.056C363.003 120.435 359.675 112.712 353.872 98.888L349.904 99.144H333.776V113.608C333.776 115.571 333.691 117.064 333.52 118.088C333.435 119.027 333.051 120.136 332.368 121.416C331.173 123.72 327.845 124.872 322.384 124.872C316.411 124.872 312.912 123.293 311.888 120.136C311.376 118.685 311.12 116.467 311.12 113.48V42.44C311.12 40.4773 311.163 39.0267 311.248 38.088C311.419 37.064 311.845 35.912 312.528 34.632C313.723 32.328 317.051 31.176 322.512 31.176H350.16C357.669 31.176 364.965 33.9067 372.048 39.368C375.461 42.0133 378.277 45.5973 380.496 50.12C382.715 54.6427 383.824 59.6773 383.824 65.224C383.824 74.8667 380.624 82.8027 374.224 89.032C376.101 93.5547 379.003 100.253 382.928 109.128ZM333.776 76.488H350.16C352.635 76.488 355.109 75.5493 357.584 73.672C360.059 71.7947 361.296 68.9787 361.296 65.224C361.296 61.4693 360.059 58.6533 357.584 56.776C355.109 54.8133 352.549 53.832 349.904 53.832H333.776V76.488ZM446.014 37.832L480.574 109.256C482.025 112.157 482.75 114.333 482.75 115.784C482.75 118.856 480.275 121.629 475.326 124.104C472.425 125.555 470.121 126.28 468.414 126.28C466.793 126.28 465.427 125.896 464.318 125.128C463.294 124.36 462.526 123.549 462.014 122.696C461.587 121.843 460.947 120.563 460.094 118.856L453.438 105.032H417.982L411.326 118.856C410.473 120.563 409.79 121.8 409.278 122.568C408.851 123.336 408.083 124.147 406.974 125C405.95 125.768 404.585 126.152 402.878 126.152C401.257 126.152 398.995 125.427 396.094 123.976C391.145 121.587 388.67 118.856 388.67 115.784C388.67 114.333 389.395 112.157 390.846 109.256L425.406 37.704C426.345 35.7413 427.753 34.1627 429.63 32.968C431.593 31.7733 433.641 31.176 435.774 31.176C440.382 31.176 443.795 33.3947 446.014 37.832ZM435.646 68.552L427.198 86.088H444.222L435.646 68.552ZM550.289 35.144C551.142 33.608 552.38 32.584 554.001 32.072C555.622 31.56 557.628 31.304 560.017 31.304C562.492 31.304 564.454 31.5173 565.905 31.944C567.441 32.3707 568.55 32.8827 569.233 33.48C570.001 34.0773 570.556 34.9733 570.897 36.168C571.409 37.5333 571.665 39.7093 571.665 42.696V113.736C571.665 115.784 571.58 117.277 571.409 118.216C571.324 119.155 570.94 120.264 570.257 121.544C569.062 123.848 565.734 125 560.273 125C556.945 125 554.641 124.744 553.361 124.232C552.081 123.72 551.014 122.909 550.161 121.8C530.961 96.2 518.332 79.4747 512.273 71.624V113.736C512.273 115.784 512.188 117.277 512.017 118.216C511.932 119.155 511.548 120.264 510.865 121.544C509.67 123.848 506.342 125 500.881 125C495.59 125 492.348 123.848 491.153 121.544C490.47 120.264 490.044 119.112 489.873 118.088C489.788 117.064 489.745 115.571 489.745 113.608V42.184C489.745 38.9413 490.129 36.5947 490.897 35.144C491.75 33.608 492.988 32.584 494.609 32.072C496.23 31.56 498.321 31.304 500.881 31.304C503.441 31.304 505.446 31.56 506.897 32.072C508.433 32.4987 509.5 33.0107 510.097 33.608C510.438 33.864 511.42 34.9733 513.041 36.936C531.046 61.4267 543.078 77.5973 549.137 85.448V42.184C549.137 38.9413 549.521 36.5947 550.289 35.144Z" fill="#F8F3E6"/>
<path d="M31.111 153.536C31.5703 153.536 31.9413 153.589 32.224 153.695C32.542 153.801 32.7893 154.013 32.966 154.331C33.1427 154.614 33.231 155.091 33.231 155.762C33.231 156.398 33.125 156.875 32.913 157.193C32.7363 157.511 32.489 157.723 32.171 157.829C31.853 157.9 31.4643 157.935 31.005 157.935H20.034V188.198C20.034 188.657 19.9633 189.064 19.822 189.417C19.716 189.77 19.4863 190.035 19.133 190.212C18.815 190.424 18.3203 190.53 17.649 190.53C16.9423 190.53 16.4123 190.424 16.059 190.212C15.741 190.035 15.529 189.77 15.423 189.417C15.3523 189.028 15.317 188.604 15.317 188.145V157.935H4.187C3.72767 157.935 3.339 157.9 3.021 157.829C2.703 157.723 2.45567 157.511 2.279 157.193C2.10233 156.875 2.014 156.398 2.014 155.762C2.014 155.091 2.08467 154.614 2.226 154.331C2.40267 154.013 2.65 153.801 2.968 153.695C3.32133 153.589 3.71 153.536 4.134 153.536H31.111ZM63.0095 187.138C63.2922 187.668 63.4335 188.127 63.4335 188.516C63.4689 188.869 63.3629 189.205 63.1156 189.523C62.8682 189.806 62.4795 190.071 61.9495 190.318C61.1015 190.707 60.4302 190.795 59.9355 190.583C59.4762 190.371 59.0522 189.859 58.6635 189.046L45.4135 160.85L32.2695 188.993C31.8809 189.806 31.4392 190.318 30.9445 190.53C30.4852 190.742 29.8139 190.654 28.9305 190.265C28.4005 190.053 28.0119 189.788 27.7645 189.47C27.5525 189.152 27.4642 188.763 27.4995 188.304C27.5702 187.845 27.7469 187.315 28.0295 186.714L43.2405 154.967C43.4525 154.543 43.7529 154.207 44.1415 153.96C44.5655 153.677 45.0072 153.536 45.4665 153.536C45.7845 153.536 46.0849 153.589 46.3675 153.695C46.6502 153.801 46.8975 153.96 47.1095 154.172C47.3215 154.384 47.4982 154.667 47.6395 155.02L63.0095 187.138ZM35.4495 179.983L37.2515 175.902H53.6815L55.4305 179.983H35.4495ZM70.0639 190.53C69.3573 190.53 68.8273 190.424 68.4739 190.212C68.1206 190.035 67.8733 189.77 67.7319 189.417C67.6259 189.064 67.5729 188.64 67.5729 188.145V155.974C67.5729 155.444 67.6259 155.002 67.7319 154.649C67.8379 154.296 68.0499 154.031 68.3679 153.854C68.7213 153.642 69.2513 153.536 69.9579 153.536C70.6646 153.536 71.1769 153.642 71.4949 153.854C71.8483 154.031 72.0779 154.296 72.1839 154.649C72.2899 155.002 72.3429 155.426 72.3429 155.921V186.078H90.0979C90.5573 186.078 90.9459 186.131 91.2639 186.237C91.5819 186.343 91.8293 186.555 92.0059 186.873C92.2179 187.191 92.3239 187.668 92.3239 188.304C92.3239 188.905 92.2356 189.382 92.0589 189.735C91.8823 190.053 91.6349 190.265 91.3169 190.371C90.9989 190.477 90.6103 190.53 90.1509 190.53H70.0639ZM99.6176 190.53C98.911 190.53 98.381 190.424 98.0276 190.212C97.6743 190.035 97.427 189.77 97.2856 189.417C97.1796 189.064 97.1266 188.64 97.1266 188.145V155.974C97.1266 155.444 97.1796 155.002 97.2856 154.649C97.3916 154.296 97.6036 154.031 97.9216 153.854C98.275 153.642 98.805 153.536 99.5116 153.536C100.218 153.536 100.731 153.642 101.049 153.854C101.402 154.031 101.632 154.296 101.738 154.649C101.844 155.002 101.897 155.426 101.897 155.921V186.078H119.652C120.111 186.078 120.5 186.131 120.818 186.237C121.136 186.343 121.383 186.555 121.56 186.873C121.772 187.191 121.878 187.668 121.878 188.304C121.878 188.905 121.789 189.382 121.613 189.735C121.436 190.053 121.189 190.265 120.871 190.371C120.553 190.477 120.164 190.53 119.705 190.53H99.6176ZM129.648 190.53C128.942 190.53 128.412 190.424 128.058 190.212C127.74 190.035 127.528 189.77 127.422 189.417C127.316 189.028 127.263 188.587 127.263 188.092V155.921C127.263 155.002 127.44 154.384 127.793 154.066C128.182 153.713 128.853 153.536 129.807 153.536H151.113C151.608 153.536 152.032 153.589 152.385 153.695C152.739 153.801 153.004 154.031 153.18 154.384C153.357 154.737 153.445 155.267 153.445 155.974C153.445 156.681 153.339 157.211 153.127 157.564C152.951 157.882 152.686 158.094 152.332 158.2C151.979 158.306 151.555 158.359 151.06 158.359H132.033V169.33H145.283C145.778 169.33 146.184 169.383 146.502 169.489C146.856 169.595 147.121 169.807 147.297 170.125C147.474 170.443 147.562 170.938 147.562 171.609C147.562 172.245 147.474 172.722 147.297 173.04C147.121 173.358 146.856 173.57 146.502 173.676C146.149 173.747 145.707 173.782 145.177 173.782H132.033V185.76H151.113C151.608 185.76 152.032 185.813 152.385 185.919C152.739 186.025 153.004 186.255 153.18 186.608C153.357 186.926 153.445 187.438 153.445 188.145C153.445 188.852 153.339 189.382 153.127 189.735C152.951 190.053 152.686 190.265 152.332 190.371C151.979 190.477 151.555 190.53 151.06 190.53H129.648ZM162.617 190.53C161.946 190.53 161.433 190.424 161.08 190.212C160.727 190.035 160.497 189.77 160.391 189.417C160.32 189.028 160.285 188.587 160.285 188.092V155.868C160.285 155.409 160.338 155.02 160.444 154.702C160.585 154.349 160.815 154.066 161.133 153.854C161.486 153.642 161.999 153.536 162.67 153.536H174.383C176.114 153.536 177.687 153.801 179.1 154.331C180.549 154.826 181.803 155.568 182.863 156.557C183.923 157.546 184.736 158.801 185.301 160.32C185.902 161.804 186.202 163.535 186.202 165.514C186.202 166.751 186.008 168.04 185.619 169.383C185.23 170.69 184.63 171.927 183.817 173.093C183.04 174.259 182.033 175.231 180.796 176.008C179.559 176.785 178.058 177.227 176.291 177.333H165.055V188.145C165.055 188.64 164.984 189.064 164.843 189.417C164.737 189.77 164.507 190.035 164.154 190.212C163.836 190.424 163.324 190.53 162.617 190.53ZM185.354 189.947C184.612 190.442 183.976 190.601 183.446 190.424C182.951 190.247 182.474 189.823 182.015 189.152L173.535 175.584L178.782 174.789L186.096 186.449C186.449 187.014 186.661 187.491 186.732 187.88C186.838 188.269 186.767 188.622 186.52 188.94C186.308 189.258 185.919 189.594 185.354 189.947ZM165.055 172.669H175.549C176.362 172.669 177.121 172.528 177.828 172.245C178.535 171.927 179.153 171.468 179.683 170.867C180.213 170.266 180.637 169.524 180.955 168.641C181.273 167.758 181.432 166.698 181.432 165.461C181.432 163.942 181.149 162.652 180.584 161.592C180.054 160.532 179.259 159.737 178.199 159.207C177.139 158.642 175.832 158.359 174.277 158.359H165.055V172.669ZM195.743 190.53C195.036 190.53 194.506 190.424 194.153 190.212C193.835 190.035 193.623 189.77 193.517 189.417C193.411 189.028 193.358 188.587 193.358 188.092V155.921C193.358 155.002 193.535 154.384 193.888 154.066C194.277 153.713 194.948 153.536 195.902 153.536H217.208C217.703 153.536 218.127 153.589 218.48 153.695C218.833 153.801 219.098 154.031 219.275 154.384C219.452 154.737 219.54 155.267 219.54 155.974C219.54 156.681 219.434 157.211 219.222 157.564C219.045 157.882 218.78 158.094 218.427 158.2C218.074 158.306 217.65 158.359 217.155 158.359H198.128V169.33H211.378C211.873 169.33 212.279 169.383 212.597 169.489C212.95 169.595 213.215 169.807 213.392 170.125C213.569 170.443 213.657 170.938 213.657 171.609C213.657 172.245 213.569 172.722 213.392 173.04C213.215 173.358 212.95 173.57 212.597 173.676C212.244 173.747 211.802 173.782 211.272 173.782H198.128V185.76H217.208C217.703 185.76 218.127 185.813 218.48 185.919C218.833 186.025 219.098 186.255 219.275 186.608C219.452 186.926 219.54 187.438 219.54 188.145C219.54 188.852 219.434 189.382 219.222 189.735C219.045 190.053 218.78 190.265 218.427 190.371C218.074 190.477 217.65 190.53 217.155 190.53H195.743ZM236.715 191.06C235.372 191.06 234.1 190.901 232.899 190.583C231.733 190.265 230.655 189.841 229.666 189.311C228.712 188.746 227.864 188.127 227.122 187.456C226.38 186.785 225.797 186.113 225.373 185.442C224.984 184.877 224.737 184.417 224.631 184.064C224.525 183.675 224.542 183.304 224.684 182.951C224.86 182.598 225.196 182.209 225.691 181.785C226.256 181.361 226.751 181.167 227.175 181.202C227.599 181.202 227.987 181.361 228.341 181.679C228.729 181.997 229.118 182.421 229.507 182.951C230.39 184.152 231.468 185.036 232.74 185.601C234.012 186.131 235.266 186.396 236.503 186.396C238.093 186.396 239.506 186.184 240.743 185.76C241.979 185.336 242.951 184.7 243.658 183.852C244.4 182.969 244.771 181.838 244.771 180.46C244.771 179.329 244.488 178.375 243.923 177.598C243.357 176.821 242.598 176.167 241.644 175.637C240.69 175.072 239.63 174.595 238.464 174.206C237.298 173.782 236.114 173.376 234.913 172.987C233.959 172.669 233.022 172.316 232.104 171.927C231.185 171.503 230.319 171.044 229.507 170.549C228.694 170.019 227.97 169.401 227.334 168.694C226.733 167.987 226.256 167.157 225.903 166.203C225.585 165.249 225.426 164.136 225.426 162.864C225.426 160.921 225.885 159.207 226.804 157.723C227.758 156.239 229.083 155.091 230.779 154.278C232.475 153.43 234.436 153.006 236.662 153.006C237.969 153.006 239.17 153.13 240.266 153.377C241.361 153.624 242.333 153.96 243.181 154.384C244.029 154.773 244.753 155.197 245.354 155.656C245.954 156.08 246.414 156.486 246.732 156.875C247.368 157.546 247.721 158.112 247.792 158.571C247.862 159.03 247.597 159.596 246.997 160.267C246.431 160.903 245.884 161.239 245.354 161.274C244.824 161.309 244.241 161.062 243.605 160.532C242.933 159.755 242.227 159.154 241.485 158.73C240.778 158.306 240.018 158.023 239.206 157.882C238.428 157.705 237.563 157.617 236.609 157.617C235.69 157.617 234.824 157.741 234.012 157.988C233.234 158.2 232.545 158.536 231.945 158.995C231.379 159.454 230.938 160.02 230.62 160.691C230.302 161.327 230.143 162.069 230.143 162.917C230.143 163.871 230.39 164.684 230.885 165.355C231.415 166.026 232.104 166.609 232.952 167.104C233.8 167.563 234.754 167.987 235.814 168.376C236.874 168.729 237.987 169.083 239.153 169.436C240.425 169.825 241.679 170.302 242.916 170.867C244.152 171.397 245.265 172.068 246.255 172.881C247.244 173.658 248.039 174.648 248.64 175.849C249.24 177.05 249.541 178.534 249.541 180.301C249.541 182.068 249.187 183.622 248.481 184.965C247.809 186.308 246.873 187.438 245.672 188.357C244.47 189.24 243.092 189.912 241.538 190.371C240.018 190.83 238.411 191.06 236.715 191.06ZM278.299 190.636C275.897 190.636 273.847 190.265 272.151 189.523C270.455 188.746 269.148 187.615 268.229 186.131C267.346 184.647 266.904 182.863 266.904 180.778C266.904 179.647 267.169 178.517 267.699 177.386C268.229 176.22 268.989 175.054 269.978 173.888C271.003 172.687 272.222 171.521 273.635 170.39C273.141 169.365 272.681 168.341 272.257 167.316C271.869 166.256 271.568 165.231 271.356 164.242C271.144 163.217 271.038 162.246 271.038 161.327C271.038 159.525 271.445 157.97 272.257 156.663C273.07 155.356 274.218 154.349 275.702 153.642C277.186 152.935 278.953 152.582 281.002 152.582C282.769 152.582 284.288 152.918 285.56 153.589C286.868 154.225 287.875 155.126 288.581 156.292C289.288 157.458 289.641 158.854 289.641 160.479C289.641 161.256 289.394 162.087 288.899 162.97C288.405 163.818 287.698 164.719 286.779 165.673C285.861 166.592 284.801 167.563 283.599 168.588C282.398 169.577 281.091 170.62 279.677 171.715C280.631 173.128 281.603 174.471 282.592 175.743C283.617 176.98 284.659 178.11 285.719 179.135C286.815 180.124 287.857 180.972 288.846 181.679C290.224 180.548 291.178 179.506 291.708 178.552C292.238 177.563 292.609 176.573 292.821 175.584C292.927 175.16 293.175 174.807 293.563 174.524C293.952 174.206 294.606 174.047 295.524 174.047C296.125 174.047 296.567 174.153 296.849 174.365C297.167 174.542 297.379 174.789 297.485 175.107C297.627 175.39 297.68 175.672 297.644 175.955C297.574 177.298 297.097 178.64 296.213 179.983C295.365 181.326 294.182 182.686 292.662 184.064C293.228 184.241 293.722 184.4 294.146 184.541C294.606 184.682 295.118 184.788 295.683 184.859C296.249 184.894 296.973 184.912 297.856 184.912C298.669 184.912 299.234 185.089 299.552 185.442C299.906 185.76 300.082 186.343 300.082 187.191C300.082 188.216 299.923 188.905 299.605 189.258C299.287 189.611 298.687 189.788 297.803 189.788C296.814 189.788 295.789 189.717 294.729 189.576C293.705 189.435 292.68 189.187 291.655 188.834C290.631 188.481 289.571 188.004 288.475 187.403C287.521 188.074 286.479 188.657 285.348 189.152C284.218 189.647 283.052 190.018 281.85 190.265C280.684 190.512 279.501 190.636 278.299 190.636ZM278.299 186.131C279.501 186.131 280.649 185.972 281.744 185.654C282.84 185.336 283.758 184.93 284.5 184.435C283.9 183.87 283.228 183.234 282.486 182.527C281.744 181.785 281.002 180.99 280.26 180.142C279.518 179.294 278.776 178.393 278.034 177.439C277.292 176.485 276.586 175.513 275.914 174.524C275.172 175.231 274.536 175.867 274.006 176.432C273.476 176.962 273.052 177.457 272.734 177.916C272.416 178.34 272.187 178.799 272.045 179.294C271.904 179.753 271.833 180.248 271.833 180.778C271.833 181.873 272.098 182.827 272.628 183.64C273.158 184.453 273.9 185.071 274.854 185.495C275.844 185.919 276.992 186.131 278.299 186.131ZM277.504 167.952C278.67 167.069 279.713 166.274 280.631 165.567C281.585 164.825 282.38 164.136 283.016 163.5C283.652 162.864 284.147 162.281 284.5 161.751C284.854 161.221 285.03 160.762 285.03 160.373C285.03 159.207 284.659 158.271 283.917 157.564C283.175 156.822 282.186 156.451 280.949 156.451C279.854 156.451 278.9 156.645 278.087 157.034C277.275 157.387 276.639 157.9 276.179 158.571C275.755 159.242 275.543 160.055 275.543 161.009C275.543 161.61 275.614 162.246 275.755 162.917C275.897 163.553 276.109 164.277 276.391 165.09C276.674 165.903 277.045 166.857 277.504 167.952ZM347.507 153.536C347.966 153.536 348.337 153.589 348.62 153.695C348.938 153.801 349.185 154.013 349.362 154.331C349.538 154.614 349.627 155.091 349.627 155.762C349.627 156.398 349.521 156.875 349.309 157.193C349.132 157.511 348.885 157.723 348.567 157.829C348.249 157.9 347.86 157.935 347.401 157.935H336.43V188.198C336.43 188.657 336.359 189.064 336.218 189.417C336.112 189.77 335.882 190.035 335.529 190.212C335.211 190.424 334.716 190.53 334.045 190.53C333.338 190.53 332.808 190.424 332.455 190.212C332.137 190.035 331.925 189.77 331.819 189.417C331.748 189.028 331.713 188.604 331.713 188.145V157.935H320.583C320.123 157.935 319.735 157.9 319.417 157.829C319.099 157.723 318.851 157.511 318.675 157.193C318.498 156.875 318.41 156.398 318.41 155.762C318.41 155.091 318.48 154.614 318.622 154.331C318.798 154.013 319.046 153.801 319.364 153.695C319.717 153.589 320.106 153.536 320.53 153.536H347.507ZM379.405 187.138C379.688 187.668 379.829 188.127 379.829 188.516C379.864 188.869 379.758 189.205 379.511 189.523C379.264 189.806 378.875 190.071 378.345 190.318C377.497 190.707 376.826 190.795 376.331 190.583C375.872 190.371 375.448 189.859 375.059 189.046L361.809 160.85L348.665 188.993C348.276 189.806 347.835 190.318 347.34 190.53C346.881 190.742 346.209 190.654 345.326 190.265C344.796 190.053 344.407 189.788 344.16 189.47C343.948 189.152 343.86 188.763 343.895 188.304C343.966 187.845 344.142 187.315 344.425 186.714L359.636 154.967C359.848 154.543 360.148 154.207 360.537 153.96C360.961 153.677 361.403 153.536 361.862 153.536C362.18 153.536 362.48 153.589 362.763 153.695C363.046 153.801 363.293 153.96 363.505 154.172C363.717 154.384 363.894 154.667 364.035 155.02L379.405 187.138ZM351.845 179.983L353.647 175.902H370.077L371.826 179.983H351.845ZM386.459 190.53C385.753 190.53 385.223 190.424 384.869 190.212C384.516 190.035 384.269 189.77 384.127 189.417C384.021 189.064 383.968 188.64 383.968 188.145V155.974C383.968 155.444 384.021 155.002 384.127 154.649C384.233 154.296 384.445 154.031 384.763 153.854C385.117 153.642 385.647 153.536 386.353 153.536C387.06 153.536 387.572 153.642 387.89 153.854C388.244 154.031 388.473 154.296 388.579 154.649C388.685 155.002 388.738 155.426 388.738 155.921V186.078H406.493C406.953 186.078 407.341 186.131 407.659 186.237C407.977 186.343 408.225 186.555 408.401 186.873C408.613 187.191 408.719 187.668 408.719 188.304C408.719 188.905 408.631 189.382 408.454 189.735C408.278 190.053 408.03 190.265 407.712 190.371C407.394 190.477 407.006 190.53 406.546 190.53H386.459ZM416.49 190.53C415.783 190.53 415.253 190.424 414.9 190.212C414.582 190.035 414.37 189.77 414.264 189.417C414.158 189.028 414.105 188.587 414.105 188.092V155.921C414.105 155.002 414.282 154.384 414.635 154.066C415.024 153.713 415.695 153.536 416.649 153.536H437.955C438.45 153.536 438.874 153.589 439.227 153.695C439.58 153.801 439.845 154.031 440.022 154.384C440.199 154.737 440.287 155.267 440.287 155.974C440.287 156.681 440.181 157.211 439.969 157.564C439.792 157.882 439.527 158.094 439.174 158.2C438.821 158.306 438.397 158.359 437.902 158.359H418.875V169.33H432.125C432.62 169.33 433.026 169.383 433.344 169.489C433.697 169.595 433.962 169.807 434.139 170.125C434.316 170.443 434.404 170.938 434.404 171.609C434.404 172.245 434.316 172.722 434.139 173.04C433.962 173.358 433.697 173.57 433.344 173.676C432.991 173.747 432.549 173.782 432.019 173.782H418.875V185.76H437.955C438.45 185.76 438.874 185.813 439.227 185.919C439.58 186.025 439.845 186.255 440.022 186.608C440.199 186.926 440.287 187.438 440.287 188.145C440.287 188.852 440.181 189.382 439.969 189.735C439.792 190.053 439.527 190.265 439.174 190.371C438.821 190.477 438.397 190.53 437.902 190.53H416.49ZM448.823 190.53C448.222 190.53 447.745 190.424 447.392 190.212C447.074 190 446.844 189.717 446.703 189.364C446.597 188.975 446.544 188.534 446.544 188.039V155.762C446.544 155.303 446.614 154.914 446.756 154.596C446.897 154.278 447.144 154.031 447.498 153.854C447.886 153.642 448.416 153.536 449.088 153.536C449.865 153.536 450.413 153.607 450.731 153.748C451.049 153.889 451.367 154.137 451.685 154.49L471.613 182.686V155.762C471.613 155.303 471.666 154.914 471.772 154.596C471.913 154.278 472.16 154.031 472.514 153.854C472.867 153.642 473.379 153.536 474.051 153.536C474.687 153.536 475.164 153.642 475.482 153.854C475.835 154.066 476.065 154.366 476.171 154.755C476.312 155.108 476.383 155.515 476.383 155.974V188.092C476.383 188.551 476.294 188.975 476.118 189.364C475.976 189.717 475.711 190 475.323 190.212C474.969 190.424 474.457 190.53 473.786 190.53C473.22 190.53 472.743 190.459 472.355 190.318C472.001 190.177 471.666 189.912 471.348 189.523L451.314 161.539V188.092C451.314 188.551 451.243 188.975 451.102 189.364C450.96 189.717 450.713 190 450.36 190.212C450.006 190.424 449.494 190.53 448.823 190.53ZM511.734 153.536C512.193 153.536 512.564 153.589 512.847 153.695C513.165 153.801 513.412 154.013 513.589 154.331C513.766 154.614 513.854 155.091 513.854 155.762C513.854 156.398 513.748 156.875 513.536 157.193C513.359 157.511 513.112 157.723 512.794 157.829C512.476 157.9 512.087 157.935 511.628 157.935H500.657V188.198C500.657 188.657 500.586 189.064 500.445 189.417C500.339 189.77 500.109 190.035 499.756 190.212C499.438 190.424 498.943 190.53 498.272 190.53C497.565 190.53 497.035 190.424 496.682 190.212C496.364 190.035 496.152 189.77 496.046 189.417C495.975 189.028 495.94 188.604 495.94 188.145V157.935H484.81C484.351 157.935 483.962 157.9 483.644 157.829C483.326 157.723 483.079 157.511 482.902 157.193C482.725 156.875 482.637 156.398 482.637 155.762C482.637 155.091 482.708 154.614 482.849 154.331C483.026 154.013 483.273 153.801 483.591 153.695C483.944 153.589 484.333 153.536 484.757 153.536H511.734ZM532.324 190.901C529.815 190.901 527.448 190.424 525.222 189.47C523.031 188.516 521.088 187.191 519.392 185.495C517.731 183.764 516.424 181.785 515.47 179.559C514.516 177.333 514.039 174.93 514.039 172.351C514.039 169.736 514.498 167.281 515.417 164.984C516.336 162.652 517.608 160.62 519.233 158.889C520.894 157.158 522.802 155.797 524.957 154.808C527.112 153.819 529.409 153.324 531.847 153.324C534.391 153.324 536.758 153.801 538.949 154.755C541.175 155.709 543.101 157.052 544.726 158.783C546.387 160.479 547.694 162.475 548.648 164.772C549.602 167.069 550.079 169.524 550.079 172.139C550.079 174.718 549.602 177.139 548.648 179.4C547.729 181.626 546.457 183.622 544.832 185.389C543.207 187.12 541.316 188.481 539.161 189.47C537.041 190.424 534.762 190.901 532.324 190.901ZM532.006 186.078C533.843 186.078 535.557 185.725 537.147 185.018C538.772 184.311 540.186 183.322 541.387 182.05C542.588 180.743 543.525 179.259 544.196 177.598C544.903 175.902 545.256 174.065 545.256 172.086C545.256 170.178 544.903 168.394 544.196 166.733C543.525 165.037 542.571 163.553 541.334 162.281C540.133 160.974 538.737 159.949 537.147 159.207C535.557 158.465 533.861 158.094 532.059 158.094C530.257 158.094 528.561 158.465 526.971 159.207C525.381 159.949 523.968 160.956 522.731 162.228C521.53 163.5 520.576 164.984 519.869 166.68C519.198 168.376 518.862 170.196 518.862 172.139C518.862 174.047 519.198 175.849 519.869 177.545C520.576 179.241 521.53 180.725 522.731 181.997C523.968 183.269 525.363 184.276 526.918 185.018C528.508 185.725 530.204 186.078 532.006 186.078ZM565.842 191.06C564.5 191.06 563.228 190.901 562.026 190.583C560.86 190.265 559.783 189.841 558.793 189.311C557.839 188.746 556.991 188.127 556.249 187.456C555.507 186.785 554.924 186.113 554.5 185.442C554.112 184.877 553.864 184.417 553.758 184.064C553.652 183.675 553.67 183.304 553.811 182.951C553.988 182.598 554.324 182.209 554.818 181.785C555.384 181.361 555.878 181.167 556.302 181.202C556.726 181.202 557.115 181.361 557.468 181.679C557.857 181.997 558.246 182.421 558.634 182.951C559.518 184.152 560.595 185.036 561.867 185.601C563.139 186.131 564.394 186.396 565.63 186.396C567.22 186.396 568.634 186.184 569.87 185.76C571.107 185.336 572.079 184.7 572.785 183.852C573.527 182.969 573.898 181.838 573.898 180.46C573.898 179.329 573.616 178.375 573.05 177.598C572.485 176.821 571.725 176.167 570.771 175.637C569.817 175.072 568.757 174.595 567.591 174.206C566.425 173.782 565.242 173.376 564.04 172.987C563.086 172.669 562.15 172.316 561.231 171.927C560.313 171.503 559.447 171.044 558.634 170.549C557.822 170.019 557.097 169.401 556.461 168.694C555.861 167.987 555.384 167.157 555.03 166.203C554.712 165.249 554.553 164.136 554.553 162.864C554.553 160.921 555.013 159.207 555.931 157.723C556.885 156.239 558.21 155.091 559.906 154.278C561.602 153.43 563.563 153.006 565.789 153.006C567.097 153.006 568.298 153.13 569.393 153.377C570.489 153.624 571.46 153.96 572.308 154.384C573.156 154.773 573.881 155.197 574.481 155.656C575.082 156.08 575.541 156.486 575.859 156.875C576.495 157.546 576.849 158.112 576.919 158.571C576.99 159.03 576.725 159.596 576.124 160.267C575.559 160.903 575.011 161.239 574.481 161.274C573.951 161.309 573.368 161.062 572.732 160.532C572.061 159.755 571.354 159.154 570.612 158.73C569.906 158.306 569.146 158.023 568.333 157.882C567.556 157.705 566.69 157.617 565.736 157.617C564.818 157.617 563.952 157.741 563.139 157.988C562.362 158.2 561.673 158.536 561.072 158.995C560.507 159.454 560.065 160.02 559.747 160.691C559.429 161.327 559.27 162.069 559.27 162.917C559.27 163.871 559.518 164.684 560.012 165.355C560.542 166.026 561.231 166.609 562.079 167.104C562.927 167.563 563.881 167.987 564.941 168.376C566.001 168.729 567.114 169.083 568.28 169.436C569.552 169.825 570.807 170.302 572.043 170.867C573.28 171.397 574.393 172.068 575.382 172.881C576.372 173.658 577.167 174.648 577.767 175.849C578.368 177.05 578.668 178.534 578.668 180.301C578.668 182.068 578.315 183.622 577.608 184.965C576.937 186.308 576.001 187.438 574.799 188.357C573.598 189.24 572.22 189.912 570.665 190.371C569.146 190.83 567.538 191.06 565.842 191.06Z" fill="#F8F3E6"/>
<path d="M108.832 34.76C109.515 36.04 109.899 37.192 109.984 38.216C110.155 39.24 110.24 40.7333 110.24 42.696V113.736C110.24 119.624 108.619 123.08 105.376 124.104C103.755 124.616 101.707 124.872 99.232 124.872C96.7573 124.872 94.7947 124.659 93.344 124.232C91.8933 123.805 90.784 123.293 90.016 122.696C89.248 122.099 88.6507 121.245 88.224 120.136C87.7973 118.685 87.584 116.467 87.584 113.48V70.6C85.4507 73.2453 82.336 77.4693 78.24 83.272C74.144 88.9893 71.5413 92.5733 70.432 94.024C69.3227 95.4747 68.5547 96.4987 68.128 97.096C67.7013 97.608 66.6347 98.376 64.928 99.4C63.3067 100.339 61.5147 100.808 59.552 100.808C57.6747 100.808 55.9253 100.381 54.304 99.528C52.768 98.5893 51.6587 97.6933 50.976 96.84L49.952 95.432C48.2453 93.2987 44.8747 88.776 39.84 81.864C34.8053 74.8667 32.0747 71.112 31.648 70.6V113.736C31.648 115.699 31.5627 117.192 31.392 118.216C31.3067 119.155 30.9227 120.221 30.24 121.416C28.96 123.72 25.632 124.872 20.256 124.872C15.0507 124.872 11.808 123.72 10.528 121.416C9.84533 120.221 9.41867 119.112 9.248 118.088C9.16267 117.064 9.12 115.528 9.12 113.48V42.44C9.12 40.4773 9.16267 39.0267 9.248 38.088C9.41867 37.064 9.84533 35.912 10.528 34.632C11.808 32.4133 15.136 31.304 20.512 31.304C22.816 31.304 24.7787 31.6027 26.4 32.2C28.1067 32.712 29.216 33.2667 29.728 33.864L30.496 34.632L59.552 72.776C74.0587 53.576 83.744 40.904 88.608 34.76C90.0587 32.456 93.472 31.304 98.848 31.304C104.309 31.304 107.637 32.456 108.832 34.76ZM164.527 30.024C177.156 30.024 188.122 34.5893 197.423 43.72C206.724 52.8507 211.375 64.2 211.375 77.768C211.375 91.2507 206.938 102.771 198.063 112.328C189.188 121.8 178.266 126.536 165.295 126.536C152.324 126.536 141.274 121.843 132.143 112.456C123.098 103.069 118.575 91.8907 118.575 78.92C118.575 71.8373 119.855 65.224 122.415 59.08C124.975 52.8507 128.388 47.6453 132.655 43.464C136.922 39.2827 141.828 35.9973 147.375 33.608C152.922 31.2187 158.639 30.024 164.527 30.024ZM141.231 78.28C141.231 85.8747 143.663 92.0613 148.527 96.84C153.476 101.533 158.98 103.88 165.039 103.88C171.098 103.88 176.559 101.576 181.423 96.968C186.287 92.36 188.719 86.1733 188.719 78.408C188.719 70.6427 186.244 64.4133 181.295 59.72C176.431 55.0267 170.97 52.68 164.911 52.68C158.852 52.68 153.391 55.0693 148.527 59.848C143.663 64.5413 141.231 70.6853 141.231 78.28ZM268.641 68.424H291.169C295.777 68.5947 298.593 69.7893 299.617 72.008C300.47 73.6293 300.897 76.0187 300.897 79.176V107.336C300.897 110.067 299.702 112.669 297.313 115.144C290.145 122.568 279.393 126.28 265.057 126.28C252.342 126.28 241.292 121.501 231.905 111.944C222.518 102.301 217.825 90.696 217.825 77.128C217.825 63.56 222.604 52.2533 232.161 43.208C241.718 34.0773 252.982 29.512 265.953 29.512C276.022 29.512 285.537 32.84 294.497 39.496C296.801 41.2027 297.953 43.1227 297.953 45.256C297.953 47.304 296.972 49.6933 295.009 52.424C291.681 56.9467 288.652 59.208 285.921 59.208C284.3 59.208 281.697 58.056 278.113 55.752C274.529 53.3627 270.262 52.168 265.313 52.168C258.828 52.168 253.068 54.472 248.033 59.08C242.998 63.6027 240.481 69.576 240.481 77C240.481 84.3387 243.041 90.6107 248.161 95.816C253.281 100.936 259.084 103.496 265.569 103.496C270.262 103.496 274.486 102.728 278.241 101.192V87.24H268.129C265.484 87.24 263.606 86.8987 262.497 86.216C261.388 85.5333 260.662 84.552 260.321 83.272C259.98 81.9067 259.809 80.1147 259.809 77.896C259.809 75.592 259.98 73.7573 260.321 72.392C260.748 71.0267 261.473 70.088 262.497 69.576C264.033 68.808 266.081 68.424 268.641 68.424ZM382.928 109.128C384.208 112.2 384.848 114.419 384.848 115.784C384.848 119.027 382.203 121.757 376.912 123.976C374.181 125.171 371.963 125.768 370.256 125.768C368.635 125.768 367.269 125.384 366.16 124.616C365.136 123.763 364.368 122.909 363.856 122.056C363.003 120.435 359.675 112.712 353.872 98.888L349.904 99.144H333.776V113.608C333.776 115.571 333.691 117.064 333.52 118.088C333.435 119.027 333.051 120.136 332.368 121.416C331.173 123.72 327.845 124.872 322.384 124.872C316.411 124.872 312.912 123.293 311.888 120.136C311.376 118.685 311.12 116.467 311.12 113.48V42.44C311.12 40.4773 311.163 39.0267 311.248 38.088C311.419 37.064 311.845 35.912 312.528 34.632C313.723 32.328 317.051 31.176 322.512 31.176H350.16C357.669 31.176 364.965 33.9067 372.048 39.368C375.461 42.0133 378.277 45.5973 380.496 50.12C382.715 54.6427 383.824 59.6773 383.824 65.224C383.824 74.8667 380.624 82.8027 374.224 89.032C376.101 93.5547 379.003 100.253 382.928 109.128ZM333.776 76.488H350.16C352.635 76.488 355.109 75.5493 357.584 73.672C360.059 71.7947 361.296 68.9787 361.296 65.224C361.296 61.4693 360.059 58.6533 357.584 56.776C355.109 54.8133 352.549 53.832 349.904 53.832H333.776V76.488ZM446.014 37.832L480.574 109.256C482.025 112.157 482.75 114.333 482.75 115.784C482.75 118.856 480.275 121.629 475.326 124.104C472.425 125.555 470.121 126.28 468.414 126.28C466.793 126.28 465.427 125.896 464.318 125.128C463.294 124.36 462.526 123.549 462.014 122.696C461.587 121.843 460.947 120.563 460.094 118.856L453.438 105.032H417.982L411.326 118.856C410.473 120.563 409.79 121.8 409.278 122.568C408.851 123.336 408.083 124.147 406.974 125C405.95 125.768 404.585 126.152 402.878 126.152C401.257 126.152 398.995 125.427 396.094 123.976C391.145 121.587 388.67 118.856 388.67 115.784C388.67 114.333 389.395 112.157 390.846 109.256L425.406 37.704C426.345 35.7413 427.753 34.1627 429.63 32.968C431.593 31.7733 433.641 31.176 435.774 31.176C440.382 31.176 443.795 33.3947 446.014 37.832ZM435.646 68.552L427.198 86.088H444.222L435.646 68.552ZM550.289 35.144C551.142 33.608 552.38 32.584 554.001 32.072C555.622 31.56 557.628 31.304 560.017 31.304C562.492 31.304 564.454 31.5173 565.905 31.944C567.441 32.3707 568.55 32.8827 569.233 33.48C570.001 34.0773 570.556 34.9733 570.897 36.168C571.409 37.5333 571.665 39.7093 571.665 42.696V113.736C571.665 115.784 571.58 117.277 571.409 118.216C571.324 119.155 570.94 120.264 570.257 121.544C569.062 123.848 565.734 125 560.273 125C556.945 125 554.641 124.744 553.361 124.232C552.081 123.72 551.014 122.909 550.161 121.8C530.961 96.2 518.332 79.4747 512.273 71.624V113.736C512.273 115.784 512.188 117.277 512.017 118.216C511.932 119.155 511.548 120.264 510.865 121.544C509.67 123.848 506.342 125 500.881 125C495.59 125 492.348 123.848 491.153 121.544C490.47 120.264 490.044 119.112 489.873 118.088C489.788 117.064 489.745 115.571 489.745 113.608V42.184C489.745 38.9413 490.129 36.5947 490.897 35.144C491.75 33.608 492.988 32.584 494.609 32.072C496.23 31.56 498.321 31.304 500.881 31.304C503.441 31.304 505.446 31.56 506.897 32.072C508.433 32.4987 509.5 33.0107 510.097 33.608C510.438 33.864 511.42 34.9733 513.041 36.936C531.046 61.4267 543.078 77.5973 549.137 85.448V42.184C549.137 38.9413 549.521 36.5947 550.289 35.144Z" fill="#FCF2D1"/>
</svg>
